<?xml version="1.0" standalone="no"?><svg xmlns:xlink="http://www.w3.org/1999/xlink" xmlns="http://www.w3.org/2000/svg" viewBox="0 0 1000 666.6666666666667" preserveAspectRatio="xMaxYMax slice"><g transform="scale(1.2650221378874131)"><rect x="0" y="0" width="790.5" height="527" fill="#ffffff"/><rect x="0" y="0" width="65.88" height="65.88" fill="#c1c1c1"/><polygon points="65.88,0 65.88,65.88 0,65.88" fill="#ffffff"/><rect x="65.88" y="0" width="65.88" height="65.88" fill="#ffffff"/><path d="M 65.88 65.88 A 65.88 65.88 0 0 1  131.76 0 L 65.88 65.88 A 65.88 65.88 0 0 0 131.76 0" fill="#ffffff"/><rect x="131.75" y="0" width="65.875" height="65.875" fill="#ffffff"/><rect x="131.75" y="0" width="32.94" height="32.94" fill="#ffffff"/><path d="M 131.75 32.94 A 32.94 32.94 0 0 1  164.69 0 L 164.69 32.94L131.75 32.94" fill="#ffffff"/><rect x="164.69" y="0" width="32.94" height="32.94" fill="#ffffff"/><path d="M 164.69 0 A 32.94 32.94 0 0 1 197.63 32.94 L 164.69 32.94L164.69 0" fill="#272727"/><rect x="131.75" y="32.94" width="32.94" height="32.94" fill="#020202"/><path d="M 131.75 32.94 A 32.94 32.94 0 0 0 164.69 65.88 L 164.69 32.94L131.75 32.94" fill="#cfcfcf"/><rect x="164.69" y="32.94" width="32.94" height="32.94" fill="#ffffff"/><path d="M 164.69 65.88 A 32.94 32.94 0 0 0 197.63 32.94 L 164.69 32.94L164.69 65.88" fill="#ffffff"/><rect x="197.63" y="0" width="65.88" height="65.88" fill="#ffffff"/><rect x="197.63" y="0" width="65.88" height="65.88" fill="#ebebeb"/><rect x="263.5" y="0" width="65.88" height="65.88" fill="#ffffff"/><polygon points="329.38,0 329.38,65.88 263.5,65.88" fill="#202020"/><rect x="329.375" y="0" width="65.875" height="65.875" fill="#ffffff"/><rect x="329.38" y="0" width="32.94" height="32.94" fill="#fdfdfd"/><polygon points="362.32,0 362.32,32.94 329.38,32.94" fill="#282828"/><rect x="362.31" y="0" width="32.94" height="32.94" fill="#4d4d4d"/><polygon points="362.31,0 395.25,32.94 362.31,32.94" fill="#bababa"/><rect x="329.38" y="32.94" width="32.94" height="32.94" fill="#ffffff"/><polygon points="329.38,32.94 362.32,32.94 329.38,65.88" fill="#f9f9f9"/><rect x="362.31" y="32.94" width="32.94" height="32.94" fill="#ffffff"/><polygon points="362.31,32.94 395.25,32.94 395.25,65.88" fill="#1b1b1b"/><rect x="395.25" y="0" width="65.88" height="65.88" fill="#ffffff"/><rect x="395.25" y="0" width="65.88" height="65.88" fill="#ffffff"/><rect x="461.125" y="0" width="65.875" height="65.875" fill="#ffffff"/><rect x="461.13" y="0" width="32.94" height="32.94" fill="#ffffff"/><polygon points="494.07,0 494.07,32.94 461.13,32.94" fill="#838383"/><rect x="494.06" y="0" width="32.94" height="32.94" fill="#696969"/><polygon points="494.06,0 527,32.94 494.06,32.94" fill="#e1e1e1"/><rect x="461.13" y="32.94" width="32.94" height="32.94" fill="#1d1d1d"/><polygon points="461.13,32.94 494.07,32.94 461.13,65.88" fill="#cecece"/><rect x="494.06" y="32.94" width="32.94" height="32.94" fill="#ffffff"/><polygon points="494.06,32.94 527,32.94 527,65.88" fill="#ffffff"/><rect x="527" y="0" width="65.875" height="65.875" fill="#ffffff"/><rect x="527" y="0" width="32.94" height="32.94" fill="#ffffff"/><path d="M 527 32.94 A 32.94 32.94 0 0 0 559.94 0 L 527 0L527 32.94" fill="#ffffff"/><rect x="559.94" y="0" width="32.94" height="32.94" fill="#ffffff"/><path d="M 559.94 0 A 32.94 32.94 0 0 0 592.8800000000001 32.94 L 592.8800000000001 0L559.94 0" fill="#515151"/><rect x="527" y="32.94" width="32.94" height="32.94" fill="#ffffff"/><path d="M 527 32.94 A 32.94 32.94 0 0 1 559.94 65.88 L 527 65.88L527 32.94" fill="#ffffff"/><rect x="559.94" y="32.94" width="32.94" height="32.94" fill="#585858"/><path d="M 559.94 65.88 A 32.94 32.94 0 0 1  592.8800000000001 32.94 L 592.8800000000001 65.88L559.94 65.88" fill="#ffffff"/><rect x="592.88" y="0" width="65.88" height="65.88" fill="#ffffff"/><polygon points="658.76,0 658.76,65.88 592.88,65.88" fill="#ffffff"/><rect x="658.75" y="0" width="65.88" height="65.88" fill="#c0c0c0"/><polygon points="658.75,0 724.63,0 658.75,65.88" fill="#ffffff"/><rect x="724.63" y="0" width="65.88" height="65.88" fill="#ffffff"/><path d="M 724.63 65.88 A 65.88 65.88 0 0 1  790.51 0 L 724.63 65.88 A 65.88 65.88 0 0 0 790.51 0" fill="#ffffff"/><rect x="0" y="65.88" width="65.88" height="65.88" fill="#afafaf"/><path d="M 0 65.88 A 65.88 65.88 0 0 0 65.88 131.76 L 65.88 65.88L0 65.88" fill="#aeaeae"/><rect x="65.875" y="65.875" width="65.875" height="65.875" fill="#ffffff"/><rect x="65.88" y="65.88" width="32.94" height="32.94" fill="#646464"/><polygon points="98.82,65.88 98.82,98.82 65.88,98.82" fill="#7f7f7f"/><rect x="98.81" y="65.88" width="32.94" height="32.94" fill="#ffffff"/><polygon points="98.81,65.88 131.75,98.82 98.81,98.82" fill="#7b7b7b"/><rect x="65.88" y="98.81" width="32.94" height="32.94" fill="#797979"/><polygon points="65.88,98.81 98.82,98.81 65.88,131.75" fill="#535353"/><rect x="98.81" y="98.81" width="32.94" height="32.94" fill="#ffffff"/><polygon points="98.81,98.81 131.75,98.81 131.75,131.75" fill="#b0b0b0"/><rect x="131.75" y="65.875" width="65.875" height="65.875" fill="#ffffff"/><rect x="131.75" y="65.88" width="32.94" height="32.94" fill="#4c4c4c"/><polygon points="164.69,65.88 164.69,98.82 131.75,98.82" fill="#dbdbdb"/><rect x="164.69" y="65.88" width="32.94" height="32.94" fill="#323232"/><polygon points="164.69,65.88 197.63,98.82 164.69,98.82" fill="#ffffff"/><rect x="131.75" y="98.81" width="32.94" height="32.94" fill="#eeeeee"/><polygon points="131.75,98.81 164.69,98.81 164.69,131.75" fill="#e1e1e1"/><rect x="164.69" y="98.81" width="32.94" height="32.94" fill="#ffffff"/><polygon points="164.69,98.81 197.63,98.81 164.69,131.75" fill="#ffffff"/><rect x="197.625" y="65.875" width="65.875" height="65.875" fill="#ffffff"/><rect x="197.63" y="65.88" width="32.94" height="32.94" fill="#ffffff"/><path d="M 197.63 98.82 A 32.94 32.94 0 0 1 230.57 65.88 L 230.57 74.115 A 24.705 24.705 0 0 0 205.865 98.82" fill="#ffffff"/><rect x="230.56" y="65.88" width="32.94" height="32.94" fill="#bcbcbc"/><path d="M 230.56 65.88 A 32.94 32.94 0 0 1 263.5 98.82 L 255.265 98.82 A 24.705 24.705 0 0 0 230.56 74.115" fill="#989898"/><rect x="197.63" y="98.81" width="32.94" height="32.94" fill="#272727"/><path d="M 197.63 98.81 A 32.94 32.94 0 0 0 230.57 131.75 L 230.57 123.515 A 24.705 24.705 0 0 1 205.865 98.81" fill="#ffffff"/><rect x="230.56" y="98.81" width="32.94" height="32.94" fill="#a0a0a0"/><path d="M 230.56 131.75 A 32.94 32.94 0 0 0 263.5 98.81 L 255.265 98.81 A 24.705 24.705 0 0 1 230.56 123.515" fill="#ffffff"/><rect x="263.5" y="65.875" width="65.875" height="65.875" fill="#ffffff"/><rect x="263.5" y="65.88" width="32.94" height="32.94" fill="#ffffff"/><path d="M 263.5 65.88 A 32.94 32.94 0 0 0 296.44 98.82 L 296.44 65.88L263.5 65.88" fill="#acacac"/><rect x="296.44" y="65.88" width="32.94" height="32.94" fill="#ffffff"/><path d="M 296.44 98.82 A 32.94 32.94 0 0 0 329.38 65.88 L 296.44 65.88L296.44 98.82" fill="#ffffff"/><rect x="263.5" y="98.81" width="32.94" height="32.94" fill="#ffffff"/><path d="M 263.5 131.75 A 32.94 32.94 0 0 1  296.44 98.81 L 296.44 131.75L263.5 131.75" fill="#595959"/><rect x="296.44" y="98.81" width="32.94" height="32.94" fill="#ffffff"/><path d="M 296.44 98.81 A 32.94 32.94 0 0 1 329.38 131.75 L 296.44 131.75L296.44 98.81" fill="#f4f4f4"/><rect x="329.375" y="65.875" width="65.875" height="65.875" fill="#ffffff"/><rect x="329.38" y="65.88" width="32.94" height="32.94" fill="#353535"/><path d="M 329.38 65.88 A 32.94 32.94 0 0 1 362.32 98.82 L 329.38 98.82L329.38 65.88" fill="#ffffff"/><rect x="362.31" y="65.88" width="32.94" height="32.94" fill="#ffffff"/><path d="M 362.31 98.82 A 32.94 32.94 0 0 1  395.25 65.88 L 395.25 98.82L362.31 98.82" fill="#e1e1e1"/><rect x="329.38" y="98.81" width="32.94" height="32.94" fill="#ffffff"/><path d="M 329.38 131.75 A 32.94 32.94 0 0 0 362.32 98.81 L 329.38 98.81L329.38 131.75" fill="#ffffff"/><rect x="362.31" y="98.81" width="32.94" height="32.94" fill="#ffffff"/><path d="M 362.31 98.81 A 32.94 32.94 0 0 0 395.25 131.75 L 395.25 98.81L362.31 98.81" fill="#ffffff"/><rect x="395.25" y="65.875" width="65.875" height="65.875" fill="#ffffff"/><rect x="395.25" y="65.88" width="32.94" height="32.94" fill="#ffffff"/><path d="M 395.25 98.82 A 32.94 32.94 0 0 1  428.19 65.88 L 428.19 98.82L395.25 98.82" fill="#999999"/><rect x="428.19" y="65.88" width="32.94" height="32.94" fill="#ffffff"/><path d="M 428.19 65.88 A 32.94 32.94 0 0 1 461.13 98.82 L 428.19 98.82L428.19 65.88" fill="#ffffff"/><rect x="395.25" y="98.81" width="32.94" height="32.94" fill="#ffffff"/><path d="M 395.25 98.81 A 32.94 32.94 0 0 0 428.19 131.75 L 428.19 98.81L395.25 98.81" fill="#ffffff"/><rect x="428.19" y="98.81" width="32.94" height="32.94" fill="#f8f8f8"/><path d="M 428.19 131.75 A 32.94 32.94 0 0 0 461.13 98.81 L 428.19 98.81L428.19 131.75" fill="#9e9e9e"/><rect x="461.125" y="65.875" width="65.875" height="65.875" fill="#ffffff"/><rect x="461.13" y="65.88" width="32.94" height="32.94" fill="#9e9e9e"/><path d="M 461.13 98.82 A 32.94 32.94 0 0 1 494.07 65.88 L 494.07 74.115 A 24.705 24.705 0 0 0 469.365 98.82" fill="#ffffff"/><rect x="494.06" y="65.88" width="32.94" height="32.94" fill="#ffffff"/><path d="M 494.06 65.88 A 32.94 32.94 0 0 1 527 98.82 L 518.765 98.82 A 24.705 24.705 0 0 0 494.06 74.115" fill="#ffffff"/><rect x="461.13" y="98.81" width="32.94" height="32.94" fill="#ffffff"/><path d="M 461.13 98.81 A 32.94 32.94 0 0 0 494.07 131.75 L 494.07 123.515 A 24.705 24.705 0 0 1 469.365 98.81" fill="#ffffff"/><rect x="494.06" y="98.81" width="32.94" height="32.94" fill="#1e1e1e"/><path d="M 494.06 131.75 A 32.94 32.94 0 0 0 527 98.81 L 518.765 98.81 A 24.705 24.705 0 0 1 494.06 123.515" fill="#ffffff"/><rect x="527" y="65.875" width="65.875" height="65.875" fill="#ffffff"/><rect x="527" y="65.88" width="32.94" height="32.94" fill="#ffffff"/><polygon points="559.94,65.88 559.94,98.82 527,98.82" fill="#aaaaaa"/><rect x="559.94" y="65.88" width="32.94" height="32.94" fill="#ffffff"/><polygon points="559.94,65.88 592.8800000000001,98.82 559.94,98.82" fill="#bdbdbd"/><rect x="527" y="98.81" width="32.94" height="32.94" fill="#4c4c4c"/><polygon points="527,98.81 559.94,98.81 559.94,131.75" fill="#6e6e6e"/><rect x="559.94" y="98.81" width="32.94" height="32.94" fill="#ffffff"/><polygon points="559.94,98.81 592.8800000000001,98.81 559.94,131.75" fill="#aaaaaa"/><rect x="592.875" y="65.875" width="65.875" height="65.875" fill="#ffffff"/><rect x="592.88" y="65.88" width="32.94" height="32.94" fill="#4e4e4e"/><path d="M 592.88 98.82 A 32.94 32.94 0 0 1 625.8199999999999 65.88 L 625.8199999999999 74.115 A 24.705 24.705 0 0 0 601.115 98.82" fill="#ffffff"/><rect x="625.81" y="65.88" width="32.94" height="32.94" fill="#c6c6c6"/><path d="M 625.81 65.88 A 32.94 32.94 0 0 1 658.75 98.82 L 650.515 98.82 A 24.705 24.705 0 0 0 625.81 74.115" fill="#a6a6a6"/><rect x="592.88" y="98.81" width="32.94" height="32.94" fill="#ffffff"/><path d="M 592.88 98.81 A 32.94 32.94 0 0 0 625.8199999999999 131.75 L 625.8199999999999 123.515 A 24.705 24.705 0 0 1 601.115 98.81" fill="#ffffff"/><rect x="625.81" y="98.81" width="32.94" height="32.94" fill="#090909"/><path d="M 625.81 131.75 A 32.94 32.94 0 0 0 658.75 98.81 L 650.515 98.81 A 24.705 24.705 0 0 1 625.81 123.515" fill="#ffffff"/><rect x="658.75" y="65.88" width="65.88" height="65.88" fill="#6e6e6e"/><path d="M 658.75 65.88 A 65.88 65.88 0 0 1 724.63 131.76 L 658.75 131.76L658.75 65.88" fill="#b8b8b8"/><rect x="724.63" y="65.88" width="65.88" height="65.88" fill="#d7d7d7"/><polygon points="790.51,65.88 790.51,131.76 724.63,131.76" fill="#222222"/><rect x="0" y="131.75" width="65.875" height="65.875" fill="#ffffff"/><rect x="0" y="131.75" width="32.94" height="32.94" fill="#606060"/><polygon points="32.94,131.75 32.94,164.69 0,164.69" fill="#ffffff"/><rect x="32.94" y="131.75" width="32.94" height="32.94" fill="#ffffff"/><polygon points="32.94,131.75 65.88,131.75 32.94,164.69" fill="#ffffff"/><rect x="0" y="164.69" width="32.94" height="32.94" fill="#ffffff"/><polygon points="0,164.69 32.94,164.69 32.94,197.63" fill="#686868"/><rect x="32.94" y="164.69" width="32.94" height="32.94" fill="#121212"/><polygon points="32.94,164.69 65.88,197.63 32.94,197.63" fill="#ffffff"/><rect x="65.875" y="131.75" width="65.875" height="65.875" fill="#ffffff"/><rect x="65.88" y="131.75" width="32.94" height="32.94" fill="#c4c4c4"/><path d="M 65.88 164.69 A 32.94 32.94 0 0 0 98.82 131.75 L 65.88 131.75L65.88 164.69" fill="#ffffff"/><rect x="98.81" y="131.75" width="32.94" height="32.94" fill="#040404"/><path d="M 98.81 131.75 A 32.94 32.94 0 0 0 131.75 164.69 L 131.75 131.75L98.81 131.75" fill="#484848"/><rect x="65.88" y="164.69" width="32.94" height="32.94" fill="#989898"/><path d="M 65.88 164.69 A 32.94 32.94 0 0 1 98.82 197.63 L 65.88 197.63L65.88 164.69" fill="#6d6d6d"/><rect x="98.81" y="164.69" width="32.94" height="32.94" fill="#222222"/><path d="M 98.81 197.63 A 32.94 32.94 0 0 1  131.75 164.69 L 131.75 197.63L98.81 197.63" fill="#121212"/><rect x="131.75" y="131.75" width="65.88" height="65.88" fill="#ffffff"/><rect x="131.75" y="131.75" width="65.88" height="65.88" fill="#4e4e4e"/><rect x="197.63" y="131.75" width="65.88" height="65.88" fill="#ffffff"/><rect x="197.63" y="131.75" width="65.88" height="65.88" fill="#cacaca"/><rect x="263.5" y="131.75" width="65.875" height="65.875" fill="#ffffff"/><rect x="263.5" y="131.75" width="32.94" height="32.94" fill="#b7b7b7"/><path d="M 263.5 164.69 A 32.94 32.94 0 0 0 296.44 131.75 L 263.5 131.75L263.5 164.69" fill="#ffffff"/><rect x="296.44" y="131.75" width="32.94" height="32.94" fill="#ffffff"/><path d="M 296.44 131.75 A 32.94 32.94 0 0 0 329.38 164.69 L 329.38 131.75L296.44 131.75" fill="#ffffff"/><rect x="263.5" y="164.69" width="32.94" height="32.94" fill="#ffffff"/><path d="M 263.5 164.69 A 32.94 32.94 0 0 1 296.44 197.63 L 263.5 197.63L263.5 164.69" fill="#ffffff"/><rect x="296.44" y="164.69" width="32.94" height="32.94" fill="#ffffff"/><path d="M 296.44 197.63 A 32.94 32.94 0 0 1  329.38 164.69 L 329.38 197.63L296.44 197.63" fill="#464646"/><rect x="329.38" y="131.75" width="65.88" height="65.88" fill="#ffffff"/><path d="M 329.38 131.75 A 65.88 65.88 0 0 1 395.26 197.63 L 329.38 197.63L329.38 131.75" fill="#ffffff"/><rect x="395.25" y="131.75" width="65.875" height="65.875" fill="#ffffff"/><rect x="395.25" y="131.75" width="32.94" height="32.94" fill="#424242"/><circle cx="411.72" cy="148.22" r="16.47" fill="#ffffff"/><rect x="428.19" y="131.75" width="32.94" height="32.94" fill="#ffffff"/><rect x="428.19" y="131.75" width="32.94" height="32.94" fill="#ffffff"/><rect x="395.25" y="164.69" width="32.94" height="32.94" fill="#ffffff"/><circle cx="411.72" cy="181.16" r="16.47" fill="#050505"/><rect x="428.19" y="164.69" width="32.94" height="32.94" fill="#6d6d6d"/><rect x="428.19" y="164.69" width="32.94" height="32.94" fill="#f8f8f8"/><rect x="461.125" y="131.75" width="65.875" height="65.875" fill="#ffffff"/><rect x="461.13" y="131.75" width="32.94" height="32.94" fill="#ababab"/><polygon points="494.07,131.75 494.07,164.69 461.13,164.69" fill="#393939"/><rect x="494.06" y="131.75" width="32.94" height="32.94" fill="#4f4f4f"/><polygon points="494.06,131.75 527,164.69 494.06,164.69" fill="#ffffff"/><rect x="461.13" y="164.69" width="32.94" height="32.94" fill="#636363"/><polygon points="461.13,164.69 494.07,164.69 461.13,197.63" fill="#ffffff"/><rect x="494.06" y="164.69" width="32.94" height="32.94" fill="#868686"/><polygon points="494.06,164.69 527,164.69 527,197.63" fill="#ffffff"/><rect x="527" y="131.75" width="65.875" height="65.875" fill="#ffffff"/><rect x="527" y="131.75" width="32.94" height="32.94" fill="#ffffff"/><path d="M 527 164.69 A 32.94 32.94 0 0 1  559.94 131.75 L 559.94 164.69L527 164.69" fill="#121212"/><rect x="559.94" y="131.75" width="32.94" height="32.94" fill="#ffffff"/><path d="M 559.94 131.75 A 32.94 32.94 0 0 1 592.8800000000001 164.69 L 559.94 164.69L559.94 131.75" fill="#ffffff"/><rect x="527" y="164.69" width="32.94" height="32.94" fill="#dfdfdf"/><path d="M 527 164.69 A 32.94 32.94 0 0 0 559.94 197.63 L 559.94 164.69L527 164.69" fill="#ffffff"/><rect x="559.94" y="164.69" width="32.94" height="32.94" fill="#ffffff"/><path d="M 559.94 197.63 A 32.94 32.94 0 0 0 592.8800000000001 164.69 L 559.94 164.69L559.94 197.63" fill="#ffffff"/><rect x="592.875" y="131.75" width="65.875" height="65.875" fill="#ffffff"/><rect x="592.88" y="131.75" width="32.94" height="32.94" fill="#515151"/><path d="M 592.88 131.75 A 32.94 32.94 0 0 1 625.8199999999999 164.69 L 592.88 164.69L592.88 131.75" fill="#bdbdbd"/><rect x="625.81" y="131.75" width="32.94" height="32.94" fill="#ffffff"/><path d="M 625.81 164.69 A 32.94 32.94 0 0 1  658.75 131.75 L 658.75 164.69L625.81 164.69" fill="#ffffff"/><rect x="592.88" y="164.69" width="32.94" height="32.94" fill="#ffffff"/><path d="M 592.88 197.63 A 32.94 32.94 0 0 0 625.8199999999999 164.69 L 592.88 164.69L592.88 197.63" fill="#ffffff"/><rect x="625.81" y="164.69" width="32.94" height="32.94" fill="#ffffff"/><path d="M 625.81 164.69 A 32.94 32.94 0 0 0 658.75 197.63 L 658.75 164.69L625.81 164.69" fill="#030303"/><rect x="658.75" y="131.75" width="65.875" height="65.875" fill="#ffffff"/><rect x="658.75" y="131.75" width="32.94" height="32.94" fill="#ffffff"/><circle cx="675.22" cy="148.22" r="16.47" fill="#ffffff"/><rect x="691.69" y="131.75" width="32.94" height="32.94" fill="#ffffff"/><rect x="691.69" y="131.75" width="32.94" height="32.94" fill="#ffffff"/><rect x="658.75" y="164.69" width="32.94" height="32.94" fill="#e7e7e7"/><circle cx="675.22" cy="181.16" r="16.47" fill="#343434"/><rect x="691.69" y="164.69" width="32.94" height="32.94" fill="#ffffff"/><rect x="691.69" y="164.69" width="32.94" height="32.94" fill="#fafafa"/><rect x="724.63" y="131.75" width="65.88" height="65.88" fill="#ffffff"/><path d="M 724.63 197.63 A 65.88 65.88 0 0 1  790.51 131.75 L 790.51 197.63L724.63 197.63" fill="#ffffff"/><rect x="0" y="197.63" width="65.88" height="65.88" fill="#ffffff"/><rect x="0" y="197.63" width="65.88" height="65.88" fill="#ffffff"/><rect x="65.88" y="197.63" width="65.88" height="65.88" fill="#ababab"/><polygon points="131.76,197.63 131.76,263.51 65.88,263.51" fill="#494949"/><rect x="131.75" y="197.63" width="65.88" height="65.88" fill="#bebebe"/><polygon points="131.75,197.63 197.63,263.51 131.75,263.51" fill="#fbfbfb"/><rect x="197.625" y="197.625" width="65.875" height="65.875" fill="#ffffff"/><rect x="197.63" y="197.63" width="32.94" height="32.94" fill="#3c3c3c"/><path d="M 197.63 230.57 A 32.94 32.94 0 0 1  230.57 197.63 L 230.57 230.57L197.63 230.57" fill="#999999"/><rect x="230.56" y="197.63" width="32.94" height="32.94" fill="#ffffff"/><path d="M 230.56 197.63 A 32.94 32.94 0 0 1 263.5 230.57 L 230.56 230.57L230.56 197.63" fill="#ffffff"/><rect x="197.63" y="230.56" width="32.94" height="32.94" fill="#b9b9b9"/><path d="M 197.63 230.56 A 32.94 32.94 0 0 0 230.57 263.5 L 230.57 230.56L197.63 230.56" fill="#242424"/><rect x="230.56" y="230.56" width="32.94" height="32.94" fill="#b0b0b0"/><path d="M 230.56 263.5 A 32.94 32.94 0 0 0 263.5 230.56 L 230.56 230.56L230.56 263.5" fill="#fafafa"/><rect x="263.5" y="197.625" width="65.875" height="65.875" fill="#ffffff"/><rect x="263.5" y="197.63" width="32.94" height="32.94" fill="#0c0c0c"/><path d="M 263.5 230.57 A 32.94 32.94 0 0 0 296.44 197.63 L 263.5 197.63L263.5 230.57" fill="#7e7e7e"/><rect x="296.44" y="197.63" width="32.94" height="32.94" fill="#c4c4c4"/><path d="M 296.44 197.63 A 32.94 32.94 0 0 0 329.38 230.57 L 329.38 197.63L296.44 197.63" fill="#e8e8e8"/><rect x="263.5" y="230.56" width="32.94" height="32.94" fill="#ffffff"/><path d="M 263.5 230.56 A 32.94 32.94 0 0 1 296.44 263.5 L 263.5 263.5L263.5 230.56" fill="#ffffff"/><rect x="296.44" y="230.56" width="32.94" height="32.94" fill="#b7b7b7"/><path d="M 296.44 263.5 A 32.94 32.94 0 0 1  329.38 230.56 L 329.38 263.5L296.44 263.5" fill="#d5d5d5"/><rect x="329.38" y="197.63" width="65.88" height="65.88" fill="#cfcfcf"/><path d="M 329.38 197.63 A 65.88 65.88 0 0 1 395.26 263.51 L 329.38 263.51L329.38 197.63" fill="#7c7c7c"/><rect x="395.25" y="197.63" width="65.88" height="65.88" fill="#7e7e7e"/><rect x="395.25" y="197.63" width="65.88" height="65.88" fill="#ffffff"/><rect x="461.125" y="197.625" width="65.875" height="65.875" fill="#ffffff"/><rect x="461.13" y="197.63" width="32.94" height="32.94" fill="#e5e5e5"/><circle cx="477.6" cy="214.1" r="16.47" fill="#c5c5c5"/><rect x="494.06" y="197.63" width="32.94" height="32.94" fill="#ffffff"/><rect x="494.06" y="197.63" width="32.94" height="32.94" fill="#ffffff"/><rect x="461.13" y="230.56" width="32.94" height="32.94" fill="#ffffff"/><circle cx="477.6" cy="247.03" r="16.47" fill="#ffffff"/><rect x="494.06" y="230.56" width="32.94" height="32.94" fill="#ffffff"/><rect x="494.06" y="230.56" width="32.94" height="32.94" fill="#474747"/><rect x="527" y="197.63" width="65.88" height="65.88" fill="#ffffff"/><rect x="527" y="197.63" width="65.88" height="65.88" fill="#ffffff"/><rect x="592.88" y="197.63" width="65.88" height="65.88" fill="#797979"/><path d="M 592.88 263.51 A 65.88 65.88 0 0 0 658.76 197.63 L 592.88 197.63L592.88 263.51" fill="#c0c0c0"/><rect x="658.75" y="197.625" width="65.875" height="65.875" fill="#ffffff"/><rect x="658.75" y="197.63" width="32.94" height="32.94" fill="#a8a8a8"/><path d="M 658.75 230.57 A 32.94 32.94 0 0 1  691.69 197.63 L 691.69 230.57L658.75 230.57" fill="#ffffff"/><rect x="691.69" y="197.63" width="32.94" height="32.94" fill="#575757"/><path d="M 691.69 197.63 A 32.94 32.94 0 0 1 724.6300000000001 230.57 L 691.69 230.57L691.69 197.63" fill="#bdbdbd"/><rect x="658.75" y="230.56" width="32.94" height="32.94" fill="#323232"/><path d="M 658.75 230.56 A 32.94 32.94 0 0 0 691.69 263.5 L 691.69 230.56L658.75 230.56" fill="#ffffff"/><rect x="691.69" y="230.56" width="32.94" height="32.94" fill="#ffffff"/><path d="M 691.69 263.5 A 32.94 32.94 0 0 0 724.6300000000001 230.56 L 691.69 230.56L691.69 263.5" fill="#363636"/><rect x="724.625" y="197.625" width="65.875" height="65.875" fill="#ffffff"/><rect x="724.63" y="197.63" width="32.94" height="32.94" fill="#505050"/><path d="M 724.63 230.57 A 32.94 32.94 0 0 1  757.5699999999999 197.63 L 757.5699999999999 230.57L724.63 230.57" fill="#f5f5f5"/><rect x="757.56" y="197.63" width="32.94" height="32.94" fill="#ffffff"/><path d="M 757.56 197.63 A 32.94 32.94 0 0 1 790.5 230.57 L 757.56 230.57L757.56 197.63" fill="#ffffff"/><rect x="724.63" y="230.56" width="32.94" height="32.94" fill="#787878"/><path d="M 724.63 230.56 A 32.94 32.94 0 0 0 757.5699999999999 263.5 L 757.5699999999999 230.56L724.63 230.56" fill="#ffffff"/><rect x="757.56" y="230.56" width="32.94" height="32.94" fill="#ffffff"/><path d="M 757.56 263.5 A 32.94 32.94 0 0 0 790.5 230.56 L 757.56 230.56L757.56 263.5" fill="#ffffff"/><rect x="0" y="263.5" width="65.88" height="65.88" fill="#ffffff"/><rect x="0" y="263.5" width="65.88" height="65.88" fill="#323232"/><rect x="65.88" y="263.5" width="65.88" height="65.88" fill="#7b7b7b"/><path d="M 65.88 329.38 A 65.88 65.88 0 0 1  131.76 263.5 L 131.76 329.38L65.88 329.38" fill="#ffffff"/><rect x="131.75" y="263.5" width="65.88" height="65.88" fill="#a4a4a4"/><path d="M 131.75 329.38 A 65.88 65.88 0 0 1  197.63 263.5 L 131.75 329.38 A 65.88 65.88 0 0 0 197.63 263.5" fill="#eeeeee"/><rect x="197.625" y="263.5" width="65.875" height="65.875" fill="#ffffff"/><rect x="197.63" y="263.5" width="32.94" height="32.94" fill="#ffffff"/><path d="M 197.63 263.5 A 32.94 32.94 0 0 1 230.57 296.44 L 197.63 296.44L197.63 263.5" fill="#f8f8f8"/><rect x="230.56" y="263.5" width="32.94" height="32.94" fill="#ffffff"/><path d="M 230.56 296.44 A 32.94 32.94 0 0 1  263.5 263.5 L 263.5 296.44L230.56 296.44" fill="#ffffff"/><rect x="197.63" y="296.44" width="32.94" height="32.94" fill="#ffffff"/><path d="M 197.63 329.38 A 32.94 32.94 0 0 0 230.57 296.44 L 197.63 296.44L197.63 329.38" fill="#e7e7e7"/><rect x="230.56" y="296.44" width="32.94" height="32.94" fill="#ffffff"/><path d="M 230.56 296.44 A 32.94 32.94 0 0 0 263.5 329.38 L 263.5 296.44L230.56 296.44" fill="#ffffff"/><rect x="263.5" y="263.5" width="65.88" height="65.88" fill="#6e6e6e"/><rect x="263.5" y="263.5" width="65.88" height="65.88" fill="#c9c9c9"/><rect x="329.38" y="263.5" width="65.88" height="65.88" fill="#8d8d8d"/><rect x="329.38" y="263.5" width="65.88" height="65.88" fill="#808080"/><rect x="395.25" y="263.5" width="65.88" height="65.88" fill="#c4c4c4"/><polygon points="395.25,263.5 461.13,263.5 461.13,329.38" fill="#ffffff"/><rect x="461.13" y="263.5" width="65.88" height="65.88" fill="#ffffff"/><polygon points="461.13,263.5 527.01,263.5 527.01,329.38" fill="#9b9b9b"/><rect x="527" y="263.5" width="65.875" height="65.875" fill="#ffffff"/><rect x="527" y="263.5" width="32.94" height="32.94" fill="#efefef"/><path d="M 527 296.44 A 32.94 32.94 0 0 1 559.94 263.5 L 559.94 271.735 A 24.705 24.705 0 0 0 535.235 296.44" fill="#080808"/><rect x="559.94" y="263.5" width="32.94" height="32.94" fill="#ffffff"/><path d="M 559.94 263.5 A 32.94 32.94 0 0 1 592.8800000000001 296.44 L 584.6450000000001 296.44 A 24.705 24.705 0 0 0 559.94 271.735" fill="#a1a1a1"/><rect x="527" y="296.44" width="32.94" height="32.94" fill="#525252"/><path d="M 527 296.44 A 32.94 32.94 0 0 0 559.94 329.38 L 559.94 321.145 A 24.705 24.705 0 0 1 535.235 296.44" fill="#ffffff"/><rect x="559.94" y="296.44" width="32.94" height="32.94" fill="#ffffff"/><path d="M 559.94 329.38 A 32.94 32.94 0 0 0 592.8800000000001 296.44 L 584.6450000000001 296.44 A 24.705 24.705 0 0 1 559.94 321.145" fill="#ffffff"/><rect x="592.88" y="263.5" width="65.88" height="65.88" fill="#ffffff"/><rect x="592.88" y="263.5" width="65.88" height="65.88" fill="#cfcfcf"/><rect x="658.75" y="263.5" width="65.875" height="65.875" fill="#ffffff"/><rect x="658.75" y="263.5" width="32.94" height="32.94" fill="#f1f1f1"/><circle cx="675.22" cy="279.97" r="16.47" fill="#d1d1d1"/><rect x="691.69" y="263.5" width="32.94" height="32.94" fill="#eaeaea"/><rect x="691.69" y="263.5" width="32.94" height="32.94" fill="#ffffff"/><rect x="658.75" y="296.44" width="32.94" height="32.94" fill="#ffffff"/><circle cx="675.22" cy="312.90999999999997" r="16.47" fill="#f5f5f5"/><rect x="691.69" y="296.44" width="32.94" height="32.94" fill="#ffffff"/><rect x="691.69" y="296.44" width="32.94" height="32.94" fill="#ffffff"/><rect x="724.63" y="263.5" width="65.88" height="65.88" fill="#ffffff"/><path d="M 724.63 263.5 A 65.88 65.88 0 0 0 790.51 329.38 L 790.51 263.5L724.63 263.5" fill="#4d4d4d"/><rect x="0" y="329.38" width="65.88" height="65.88" fill="#ffffff"/><path d="M 0 329.38 A 65.88 65.88 0 0 1  65.88 395.26 L 0 329.38 A 65.88 65.88 0 0 0 65.88 395.26" fill="#cacaca"/><rect x="65.88" y="329.38" width="65.88" height="65.88" fill="#ffffff"/><path d="M 65.88 395.26 A 65.88 65.88 0 0 1  131.76 329.38 L 131.76 395.26L65.88 395.26" fill="#575757"/><rect x="131.75" y="329.38" width="65.88" height="65.88" fill="#ffffff"/><rect x="131.75" y="329.38" width="65.88" height="65.88" fill="#717171"/><rect x="197.63" y="329.38" width="65.88" height="65.88" fill="#ffffff"/><polygon points="197.63,329.38 263.51,395.26 197.63,395.26" fill="#ffffff"/><rect x="263.5" y="329.38" width="65.88" height="65.88" fill="#ffffff"/><path d="M 263.5 329.38 A 65.88 65.88 0 0 0 329.38 395.26 L 329.38 329.38L263.5 329.38" fill="#ffffff"/><rect x="329.38" y="329.38" width="65.88" height="65.88" fill="#a2a2a2"/><polygon points="329.38,329.38 395.26,395.26 329.38,395.26" fill="#ffffff"/><rect x="395.25" y="329.38" width="65.88" height="65.88" fill="#ffffff"/><rect x="395.25" y="329.38" width="65.88" height="65.88" fill="#696969"/><rect x="461.13" y="329.38" width="65.88" height="65.88" fill="#ffffff"/><polygon points="461.13,329.38 527.01,395.26 461.13,395.26" fill="#ffffff"/><rect x="527" y="329.38" width="65.88" height="65.88" fill="#ffffff"/><path d="M 527 395.26 A 65.88 65.88 0 0 0 592.88 329.38 L 527 329.38L527 395.26" fill="#ffffff"/><rect x="592.88" y="329.38" width="65.88" height="65.88" fill="#ffffff"/><polygon points="592.88,329.38 658.76,395.26 592.88,395.26" fill="#ffffff"/><rect x="658.75" y="329.38" width="65.88" height="65.88" fill="#eaeaea"/><rect x="658.75" y="329.38" width="65.88" height="65.88" fill="#ffffff"/><rect x="724.63" y="329.38" width="65.88" height="65.88" fill="#ffffff"/><rect x="724.63" y="329.38" width="65.88" height="65.88" fill="#ffffff"/><rect x="0" y="395.25" width="65.88" height="65.88" fill="#ffffff"/><polygon points="0,395.25 65.88,461.13 0,461.13" fill="#ffffff"/><rect x="65.875" y="395.25" width="65.875" height="65.875" fill="#ffffff"/><rect x="65.88" y="395.25" width="32.94" height="32.94" fill="#ffffff"/><path d="M 65.88 395.25 A 32.94 32.94 0 0 1 98.82 428.19 L 65.88 428.19L65.88 395.25" fill="#ffffff"/><rect x="98.81" y="395.25" width="32.94" height="32.94" fill="#878787"/><path d="M 98.81 428.19 A 32.94 32.94 0 0 1  131.75 395.25 L 131.75 428.19L98.81 428.19" fill="#ffffff"/><rect x="65.88" y="428.19" width="32.94" height="32.94" fill="#d4d4d4"/><path d="M 65.88 461.13 A 32.94 32.94 0 0 0 98.82 428.19 L 65.88 428.19L65.88 461.13" fill="#cacaca"/><rect x="98.81" y="428.19" width="32.94" height="32.94" fill="#4a4a4a"/><path d="M 98.81 428.19 A 32.94 32.94 0 0 0 131.75 461.13 L 131.75 428.19L98.81 428.19" fill="#ffffff"/><rect x="131.75" y="395.25" width="65.875" height="65.875" fill="#ffffff"/><rect x="131.75" y="395.25" width="32.94" height="32.94" fill="#9e9e9e"/><path d="M 131.75 428.19 A 32.94 32.94 0 0 0 164.69 395.25 L 131.75 395.25L131.75 428.19" fill="#ffffff"/><rect x="164.69" y="395.25" width="32.94" height="32.94" fill="#ffffff"/><path d="M 164.69 395.25 A 32.94 32.94 0 0 0 197.63 428.19 L 197.63 395.25L164.69 395.25" fill="#ffffff"/><rect x="131.75" y="428.19" width="32.94" height="32.94" fill="#ffffff"/><path d="M 131.75 428.19 A 32.94 32.94 0 0 1 164.69 461.13 L 131.75 461.13L131.75 428.19" fill="#d5d5d5"/><rect x="164.69" y="428.19" width="32.94" height="32.94" fill="#ffffff"/><path d="M 164.69 461.13 A 32.94 32.94 0 0 1  197.63 428.19 L 197.63 461.13L164.69 461.13" fill="#ffffff"/><rect x="197.625" y="395.25" width="65.875" height="65.875" fill="#ffffff"/><rect x="197.63" y="395.25" width="32.94" height="32.94" fill="#dcdcdc"/><polygon points="230.57,395.25 230.57,428.19 197.63,428.19" fill="#ffffff"/><rect x="230.56" y="395.25" width="32.94" height="32.94" fill="#525252"/><polygon points="230.56,395.25 263.5,395.25 230.56,428.19" fill="#2f2f2f"/><rect x="197.63" y="428.19" width="32.94" height="32.94" fill="#2d2d2d"/><polygon points="197.63,428.19 230.57,428.19 230.57,461.13" fill="#767676"/><rect x="230.56" y="428.19" width="32.94" height="32.94" fill="#ffffff"/><polygon points="230.56,428.19 263.5,461.13 230.56,461.13" fill="#e9e9e9"/><rect x="263.5" y="395.25" width="65.875" height="65.875" fill="#ffffff"/><rect x="263.5" y="395.25" width="32.94" height="32.94" fill="#ffffff"/><polygon points="296.44,395.25 296.44,428.19 263.5,428.19" fill="#ffffff"/><rect x="296.44" y="395.25" width="32.94" height="32.94" fill="#ffffff"/><polygon points="296.44,395.25 329.38,395.25 296.44,428.19" fill="#ffffff"/><rect x="263.5" y="428.19" width="32.94" height="32.94" fill="#ffffff"/><polygon points="263.5,428.19 296.44,428.19 296.44,461.13" fill="#737373"/><rect x="296.44" y="428.19" width="32.94" height="32.94" fill="#ffffff"/><polygon points="296.44,428.19 329.38,461.13 296.44,461.13" fill="#979797"/><rect x="329.38" y="395.25" width="65.88" height="65.88" fill="#050505"/><polygon points="395.26,395.25 395.26,461.13 329.38,461.13" fill="#ffffff"/><rect x="395.25" y="395.25" width="65.88" height="65.88" fill="#585858"/><path d="M 395.25 461.13 A 65.88 65.88 0 0 0 461.13 395.25 L 395.25 395.25L395.25 461.13" fill="#a3a3a3"/><rect x="461.125" y="395.25" width="65.875" height="65.875" fill="#ffffff"/><rect x="461.13" y="395.25" width="32.94" height="32.94" fill="#ffffff"/><path d="M 461.13 428.19 A 32.94 32.94 0 0 1 494.07 395.25 L 494.07 403.485 A 24.705 24.705 0 0 0 469.365 428.19" fill="#ffffff"/><rect x="494.06" y="395.25" width="32.94" height="32.94" fill="#aeaeae"/><path d="M 494.06 395.25 A 32.94 32.94 0 0 1 527 428.19 L 518.765 428.19 A 24.705 24.705 0 0 0 494.06 403.485" fill="#ffffff"/><rect x="461.13" y="428.19" width="32.94" height="32.94" fill="#a4a4a4"/><path d="M 461.13 428.19 A 32.94 32.94 0 0 0 494.07 461.13 L 494.07 452.895 A 24.705 24.705 0 0 1 469.365 428.19" fill="#f8f8f8"/><rect x="494.06" y="428.19" width="32.94" height="32.94" fill="#ffffff"/><path d="M 494.06 461.13 A 32.94 32.94 0 0 0 527 428.19 L 518.765 428.19 A 24.705 24.705 0 0 1 494.06 452.895" fill="#ffffff"/><rect x="527" y="395.25" width="65.88" height="65.88" fill="#292929"/><rect x="527" y="395.25" width="65.88" height="65.88" fill="#ffffff"/><rect x="592.875" y="395.25" width="65.875" height="65.875" fill="#ffffff"/><rect x="592.88" y="395.25" width="32.94" height="32.94" fill="#a7a7a7"/><polygon points="625.8199999999999,395.25 625.8199999999999,428.19 592.88,428.19" fill="#ffffff"/><rect x="625.81" y="395.25" width="32.94" height="32.94" fill="#d2d2d2"/><polygon points="625.81,395.25 658.75,428.19 625.81,428.19" fill="#ffffff"/><rect x="592.88" y="428.19" width="32.94" height="32.94" fill="#ffffff"/><polygon points="592.88,428.19 625.8199999999999,428.19 625.8199999999999,461.13" fill="#ffffff"/><rect x="625.81" y="428.19" width="32.94" height="32.94" fill="#ffffff"/><polygon points="625.81,428.19 658.75,428.19 625.81,461.13" fill="#ffffff"/><rect x="658.75" y="395.25" width="65.88" height="65.88" fill="#0e0e0e"/><path d="M 658.75 461.13 A 65.88 65.88 0 0 0 724.63 395.25 L 658.75 395.25L658.75 461.13" fill="#030303"/><rect x="724.63" y="395.25" width="65.88" height="65.88" fill="#ffffff"/><polygon points="790.51,395.25 790.51,461.13 724.63,461.13" fill="#8d8d8d"/><rect x="0" y="461.125" width="65.875" height="65.875" fill="#ffffff"/><rect x="0" y="461.13" width="32.94" height="32.94" fill="#e7e7e7"/><path d="M 0 494.07 A 32.94 32.94 0 0 0 32.94 461.13 L 0 461.13L0 494.07" fill="#ffffff"/><rect x="32.94" y="461.13" width="32.94" height="32.94" fill="#e9e9e9"/><path d="M 32.94 461.13 A 32.94 32.94 0 0 0 65.88 494.07 L 65.88 461.13L32.94 461.13" fill="#ffffff"/><rect x="0" y="494.06" width="32.94" height="32.94" fill="#ffffff"/><path d="M 0 494.06 A 32.94 32.94 0 0 1 32.94 527 L 0 527L0 494.06" fill="#ffffff"/><rect x="32.94" y="494.06" width="32.94" height="32.94" fill="#777777"/><path d="M 32.94 527 A 32.94 32.94 0 0 1  65.88 494.06 L 65.88 527L32.94 527" fill="#ffffff"/><rect x="65.875" y="461.125" width="65.875" height="65.875" fill="#ffffff"/><rect x="65.88" y="461.13" width="32.94" height="32.94" fill="#959595"/><polygon points="98.82,461.13 98.82,494.07 65.88,494.07" fill="#ffffff"/><rect x="98.81" y="461.13" width="32.94" height="32.94" fill="#636363"/><polygon points="98.81,461.13 131.75,494.07 98.81,494.07" fill="#ffffff"/><rect x="65.88" y="494.06" width="32.94" height="32.94" fill="#868686"/><polygon points="65.88,494.06 98.82,494.06 98.82,527" fill="#ffffff"/><rect x="98.81" y="494.06" width="32.94" height="32.94" fill="#ffffff"/><polygon points="98.81,494.06 131.75,494.06 98.81,527" fill="#ffffff"/><rect x="131.75" y="461.125" width="65.875" height="65.875" fill="#ffffff"/><rect x="131.75" y="461.13" width="32.94" height="32.94" fill="#707070"/><path d="M 131.75 494.07 A 32.94 32.94 0 0 1 164.69 461.13 L 164.69 469.365 A 24.705 24.705 0 0 0 139.985 494.07" fill="#ffffff"/><rect x="164.69" y="461.13" width="32.94" height="32.94" fill="#ffffff"/><path d="M 164.69 461.13 A 32.94 32.94 0 0 1 197.63 494.07 L 189.39499999999998 494.07 A 24.705 24.705 0 0 0 164.69 469.365" fill="#ffffff"/><rect x="131.75" y="494.06" width="32.94" height="32.94" fill="#515151"/><path d="M 131.75 494.06 A 32.94 32.94 0 0 0 164.69 527 L 164.69 518.765 A 24.705 24.705 0 0 1 139.985 494.06" fill="#ffffff"/><rect x="164.69" y="494.06" width="32.94" height="32.94" fill="#ffffff"/><path d="M 164.69 527 A 32.94 32.94 0 0 0 197.63 494.06 L 189.39499999999998 494.06 A 24.705 24.705 0 0 1 164.69 518.765" fill="#ffffff"/><rect x="197.63" y="461.13" width="65.88" height="65.88" fill="#ffffff"/><rect x="197.63" y="461.13" width="65.88" height="65.88" fill="#ffffff"/><rect x="263.5" y="461.125" width="65.875" height="65.875" fill="#ffffff"/><rect x="263.5" y="461.13" width="32.94" height="32.94" fill="#ffffff"/><circle cx="279.97" cy="477.6" r="16.47" fill="#ffffff"/><rect x="296.44" y="461.13" width="32.94" height="32.94" fill="#848484"/><rect x="296.44" y="461.13" width="32.94" height="32.94" fill="#ffffff"/><rect x="263.5" y="494.06" width="32.94" height="32.94" fill="#ffffff"/><circle cx="279.97" cy="510.53" r="16.47" fill="#b6b6b6"/><rect x="296.44" y="494.06" width="32.94" height="32.94" fill="#ffffff"/><rect x="296.44" y="494.06" width="32.94" height="32.94" fill="#ffffff"/><rect x="329.375" y="461.125" width="65.875" height="65.875" fill="#ffffff"/><rect x="329.38" y="461.13" width="32.94" height="32.94" fill="#0d0d0d"/><polygon points="362.32,461.13 362.32,494.07 329.38,494.07" fill="#a0a0a0"/><rect x="362.31" y="461.13" width="32.94" height="32.94" fill="#ffffff"/><polygon points="362.31,461.13 395.25,494.07 362.31,494.07" fill="#ffffff"/><rect x="329.38" y="494.06" width="32.94" height="32.94" fill="#aaaaaa"/><polygon points="329.38,494.06 362.32,494.06 362.32,527" fill="#ffffff"/><rect x="362.31" y="494.06" width="32.94" height="32.94" fill="#ffffff"/><polygon points="362.31,494.06 395.25,494.06 362.31,527" fill="#343434"/><rect x="395.25" y="461.125" width="65.875" height="65.875" fill="#ffffff"/><rect x="395.25" y="461.13" width="32.94" height="32.94" fill="#6a6a6a"/><polygon points="428.19,461.13 428.19,494.07 395.25,494.07" fill="#373737"/><rect x="428.19" y="461.13" width="32.94" height="32.94" fill="#ffffff"/><polygon points="428.19,461.13 461.13,461.13 428.19,494.07" fill="#ffffff"/><rect x="395.25" y="494.06" width="32.94" height="32.94" fill="#e2e2e2"/><polygon points="395.25,494.06 428.19,494.06 428.19,527" fill="#040404"/><rect x="428.19" y="494.06" width="32.94" height="32.94" fill="#7d7d7d"/><polygon points="428.19,494.06 461.13,527 428.19,527" fill="#cecece"/><rect x="461.13" y="461.13" width="65.88" height="65.88" fill="#ffffff"/><path d="M 461.13 527.01 A 65.88 65.88 0 0 1  527.01 461.13 L 461.13 527.01 A 65.88 65.88 0 0 0 527.01 461.13" fill="#ffffff"/><rect x="527" y="461.13" width="65.88" height="65.88" fill="#141414"/><path d="M 527 527.01 A 65.88 65.88 0 0 0 592.88 461.13 L 527 461.13L527 527.01" fill="#ffffff"/><rect x="592.88" y="461.13" width="65.88" height="65.88" fill="#ffffff"/><polygon points="592.88,461.13 658.76,461.13 658.76,527.01" fill="#898989"/><rect x="658.75" y="461.13" width="65.88" height="65.88" fill="#ffffff"/><polygon points="658.75,461.13 724.63,461.13 724.63,527.01" fill="#ffffff"/><rect x="724.63" y="461.13" width="65.88" height="65.88" fill="#ffffff"/><rect x="724.63" y="461.13" width="65.88" height="65.88" fill="#ffffff"/></g></svg>