<?xml version="1.0" standalone="no"?><svg xmlns:xlink="http://www.w3.org/1999/xlink" xmlns="http://www.w3.org/2000/svg" viewBox="0 0 1000 666.6666666666667" preserveAspectRatio="xMaxYMax slice"><g transform="scale(1.2650221378874131)"><rect x="0" y="0" width="790.5" height="527" fill="#ffffff"/><rect x="0" y="0" width="65.875" height="65.875" fill="#ffffff"/><rect x="0" y="0" width="32.94" height="32.94" fill="#fbfdff"/><polygon points="32.94,0 32.94,32.94 0,32.94" fill="#adc5f6"/><rect x="32.94" y="0" width="32.94" height="32.94" fill="#dee8fb"/><polygon points="32.94,0 65.88,32.94 32.94,32.94" fill="#ffffff"/><rect x="0" y="32.94" width="32.94" height="32.94" fill="#ffffff"/><polygon points="0,32.94 32.94,32.94 32.94,65.88" fill="#ffffff"/><rect x="32.94" y="32.94" width="32.94" height="32.94" fill="#ffffff"/><polygon points="32.94,32.94 65.88,32.94 32.94,65.88" fill="#ffffff"/><rect x="65.88" y="0" width="65.88" height="65.88" fill="#ffffff"/><path d="M 65.88 0 A 65.88 65.88 0 0 1 131.76 65.88 L 65.88 65.88L65.88 0" fill="#bcd0f7"/><rect x="131.75" y="0" width="65.88" height="65.88" fill="#b7cdf7"/><polygon points="131.75,0 197.63,0 197.63,65.88" fill="#ebf1fd"/><rect x="197.63" y="0" width="65.88" height="65.88" fill="#d5e2fa"/><rect x="197.63" y="0" width="65.88" height="65.88" fill="#e4ecfc"/><rect x="263.5" y="0" width="65.875" height="65.875" fill="#ffffff"/><rect x="263.5" y="0" width="32.94" height="32.94" fill="#ffffff"/><circle cx="279.97" cy="16.47" r="16.47" fill="#f0f4fd"/><rect x="296.44" y="0" width="32.94" height="32.94" fill="#ccdbf9"/><rect x="296.44" y="0" width="32.94" height="32.94" fill="#9bb9f4"/><rect x="263.5" y="32.94" width="32.94" height="32.94" fill="#ffffff"/><circle cx="279.97" cy="49.41" r="16.47" fill="#ffffff"/><rect x="296.44" y="32.94" width="32.94" height="32.94" fill="#cddcf9"/><rect x="296.44" y="32.94" width="32.94" height="32.94" fill="#ffffff"/><rect x="329.375" y="0" width="65.875" height="65.875" fill="#ffffff"/><rect x="329.38" y="0" width="32.94" height="32.94" fill="#d1dffa"/><path d="M 329.38 32.94 A 32.94 32.94 0 0 1 362.32 0 L 362.32 8.235 A 24.705 24.705 0 0 0 337.615 32.94" fill="#ffffff"/><rect x="362.31" y="0" width="32.94" height="32.94" fill="#ebf1fd"/><path d="M 362.31 0 A 32.94 32.94 0 0 1 395.25 32.94 L 387.015 32.94 A 24.705 24.705 0 0 0 362.31 8.235" fill="#ffffff"/><rect x="329.38" y="32.94" width="32.94" height="32.94" fill="#dfe9fb"/><path d="M 329.38 32.94 A 32.94 32.94 0 0 0 362.32 65.88 L 362.32 57.644999999999996 A 24.705 24.705 0 0 1 337.615 32.94" fill="#ffffff"/><rect x="362.31" y="32.94" width="32.94" height="32.94" fill="#fcfdff"/><path d="M 362.31 65.88 A 32.94 32.94 0 0 0 395.25 32.94 L 387.015 32.94 A 24.705 24.705 0 0 1 362.31 57.644999999999996" fill="#d8e4fb"/><rect x="395.25" y="0" width="65.88" height="65.88" fill="#ffffff"/><polygon points="461.13,0 461.13,65.88 395.25,65.88" fill="#ffffff"/><rect x="461.125" y="0" width="65.875" height="65.875" fill="#ffffff"/><rect x="461.13" y="0" width="32.94" height="32.94" fill="#fafcfe"/><path d="M 461.13 32.94 A 32.94 32.94 0 0 1  494.07 0 L 494.07 32.94L461.13 32.94" fill="#ffffff"/><rect x="494.06" y="0" width="32.94" height="32.94" fill="#dee8fb"/><path d="M 494.06 0 A 32.94 32.94 0 0 1 527 32.94 L 494.06 32.94L494.06 0" fill="#edf2fd"/><rect x="461.13" y="32.94" width="32.94" height="32.94" fill="#e0e9fc"/><path d="M 461.13 32.94 A 32.94 32.94 0 0 0 494.07 65.88 L 494.07 32.94L461.13 32.94" fill="#c7d8f9"/><rect x="494.06" y="32.94" width="32.94" height="32.94" fill="#ffffff"/><path d="M 494.06 65.88 A 32.94 32.94 0 0 0 527 32.94 L 494.06 32.94L494.06 65.88" fill="#fcfdff"/><rect x="527" y="0" width="65.875" height="65.875" fill="#ffffff"/><rect x="527" y="0" width="32.94" height="32.94" fill="#ffffff"/><circle cx="543.47" cy="16.47" r="16.47" fill="#ffffff"/><rect x="559.94" y="0" width="32.94" height="32.94" fill="#ffffff"/><rect x="559.94" y="0" width="32.94" height="32.94" fill="#acc5f6"/><rect x="527" y="32.94" width="32.94" height="32.94" fill="#e4ecfc"/><circle cx="543.47" cy="49.41" r="16.47" fill="#9fbcf4"/><rect x="559.94" y="32.94" width="32.94" height="32.94" fill="#cbdbf9"/><rect x="559.94" y="32.94" width="32.94" height="32.94" fill="#bacff7"/><rect x="592.875" y="0" width="65.875" height="65.875" fill="#ffffff"/><rect x="592.88" y="0" width="32.94" height="32.94" fill="#ffffff"/><path d="M 592.88 32.94 A 32.94 32.94 0 0 0 625.8199999999999 0 L 592.88 0L592.88 32.94" fill="#ffffff"/><rect x="625.81" y="0" width="32.94" height="32.94" fill="#ffffff"/><path d="M 625.81 0 A 32.94 32.94 0 0 0 658.75 32.94 L 658.75 0L625.81 0" fill="#ffffff"/><rect x="592.88" y="32.94" width="32.94" height="32.94" fill="#9ab9f4"/><path d="M 592.88 32.94 A 32.94 32.94 0 0 1 625.8199999999999 65.88 L 592.88 65.88L592.88 32.94" fill="#ffffff"/><rect x="625.81" y="32.94" width="32.94" height="32.94" fill="#a7c1f5"/><path d="M 625.81 65.88 A 32.94 32.94 0 0 1  658.75 32.94 L 658.75 65.88L625.81 65.88" fill="#a4bff5"/><rect x="658.75" y="0" width="65.88" height="65.88" fill="#ffffff"/><rect x="658.75" y="0" width="65.88" height="65.88" fill="#c9d9f9"/><rect x="724.63" y="0" width="65.88" height="65.88" fill="#ffffff"/><path d="M 724.63 0 A 65.88 65.88 0 0 0 790.51 65.88 L 790.51 0L724.63 0" fill="#ffffff"/><rect x="0" y="65.875" width="65.875" height="65.875" fill="#ffffff"/><rect x="0" y="65.88" width="32.94" height="32.94" fill="#ceddf9"/><path d="M 0 65.88 A 32.94 32.94 0 0 0 32.94 98.82 L 32.94 65.88L0 65.88" fill="#cddcf9"/><rect x="32.94" y="65.88" width="32.94" height="32.94" fill="#ffffff"/><path d="M 32.94 98.82 A 32.94 32.94 0 0 0 65.88 65.88 L 32.94 65.88L32.94 98.82" fill="#ffffff"/><rect x="0" y="98.81" width="32.94" height="32.94" fill="#ffffff"/><path d="M 0 131.75 A 32.94 32.94 0 0 1  32.94 98.81 L 32.94 131.75L0 131.75" fill="#f0f4fd"/><rect x="32.94" y="98.81" width="32.94" height="32.94" fill="#b9cef7"/><path d="M 32.94 98.81 A 32.94 32.94 0 0 1 65.88 131.75 L 32.94 131.75L32.94 98.81" fill="#ffffff"/><rect x="65.88" y="65.88" width="65.88" height="65.88" fill="#e8effc"/><polygon points="65.88,65.88 131.76,65.88 65.88,131.76" fill="#a4bff5"/><rect x="131.75" y="65.88" width="65.88" height="65.88" fill="#ffffff"/><rect x="131.75" y="65.88" width="65.88" height="65.88" fill="#bbcff7"/><rect x="197.625" y="65.875" width="65.875" height="65.875" fill="#ffffff"/><rect x="197.63" y="65.88" width="32.94" height="32.94" fill="#ffffff"/><polygon points="230.57,65.88 230.57,98.82 197.63,98.82" fill="#ffffff"/><rect x="230.56" y="65.88" width="32.94" height="32.94" fill="#f6f9fe"/><polygon points="230.56,65.88 263.5,98.82 230.56,98.82" fill="#b6ccf7"/><rect x="197.63" y="98.81" width="32.94" height="32.94" fill="#ffffff"/><polygon points="197.63,98.81 230.57,98.81 230.57,131.75" fill="#dfe9fb"/><rect x="230.56" y="98.81" width="32.94" height="32.94" fill="#99b8f3"/><polygon points="230.56,98.81 263.5,98.81 230.56,131.75" fill="#c7d8f9"/><rect x="263.5" y="65.88" width="65.88" height="65.88" fill="#ffffff"/><polygon points="263.5,65.88 329.38,65.88 263.5,131.76" fill="#a0bdf4"/><rect x="329.38" y="65.88" width="65.88" height="65.88" fill="#e6eefc"/><polygon points="329.38,65.88 395.26,65.88 329.38,131.76" fill="#96b5f3"/><rect x="395.25" y="65.88" width="65.88" height="65.88" fill="#ffffff"/><rect x="395.25" y="65.88" width="65.88" height="65.88" fill="#ceddfa"/><rect x="461.125" y="65.875" width="65.875" height="65.875" fill="#ffffff"/><rect x="461.13" y="65.88" width="32.94" height="32.94" fill="#a3bff5"/><path d="M 461.13 98.82 A 32.94 32.94 0 0 1  494.07 65.88 L 494.07 98.82L461.13 98.82" fill="#a1bdf4"/><rect x="494.06" y="65.88" width="32.94" height="32.94" fill="#b1c8f6"/><path d="M 494.06 65.88 A 32.94 32.94 0 0 1 527 98.82 L 494.06 98.82L494.06 65.88" fill="#cfddfa"/><rect x="461.13" y="98.81" width="32.94" height="32.94" fill="#b8cdf7"/><path d="M 461.13 98.81 A 32.94 32.94 0 0 0 494.07 131.75 L 494.07 98.81L461.13 98.81" fill="#dde7fb"/><rect x="494.06" y="98.81" width="32.94" height="32.94" fill="#b6ccf7"/><path d="M 494.06 131.75 A 32.94 32.94 0 0 0 527 98.81 L 494.06 98.81L494.06 131.75" fill="#fcfdff"/><rect x="527" y="65.88" width="65.88" height="65.88" fill="#98b7f3"/><path d="M 527 131.76 A 65.88 65.88 0 0 0 592.88 65.88 L 527 65.88L527 131.76" fill="#ffffff"/><rect x="592.875" y="65.875" width="65.875" height="65.875" fill="#ffffff"/><rect x="592.88" y="65.88" width="32.94" height="32.94" fill="#c1d4f8"/><path d="M 592.88 65.88 A 32.94 32.94 0 0 0 625.8199999999999 98.82 L 625.8199999999999 65.88L592.88 65.88" fill="#e2ebfc"/><rect x="625.81" y="65.88" width="32.94" height="32.94" fill="#ffffff"/><path d="M 625.81 98.82 A 32.94 32.94 0 0 0 658.75 65.88 L 625.81 65.88L625.81 98.82" fill="#b3caf6"/><rect x="592.88" y="98.81" width="32.94" height="32.94" fill="#bed1f8"/><path d="M 592.88 131.75 A 32.94 32.94 0 0 1  625.8199999999999 98.81 L 625.8199999999999 131.75L592.88 131.75" fill="#ffffff"/><rect x="625.81" y="98.81" width="32.94" height="32.94" fill="#ffffff"/><path d="M 625.81 98.81 A 32.94 32.94 0 0 1 658.75 131.75 L 625.81 131.75L625.81 98.81" fill="#dce7fb"/><rect x="658.75" y="65.875" width="65.875" height="65.875" fill="#ffffff"/><rect x="658.75" y="65.88" width="32.94" height="32.94" fill="#a5c0f5"/><circle cx="675.22" cy="82.35" r="16.47" fill="#ffffff"/><rect x="691.69" y="65.88" width="32.94" height="32.94" fill="#dee8fb"/><rect x="691.69" y="65.88" width="32.94" height="32.94" fill="#ffffff"/><rect x="658.75" y="98.81" width="32.94" height="32.94" fill="#ffffff"/><circle cx="675.22" cy="115.28" r="16.47" fill="#aac4f5"/><rect x="691.69" y="98.81" width="32.94" height="32.94" fill="#ffffff"/><rect x="691.69" y="98.81" width="32.94" height="32.94" fill="#ffffff"/><rect x="724.625" y="65.875" width="65.875" height="65.875" fill="#ffffff"/><rect x="724.63" y="65.88" width="32.94" height="32.94" fill="#cfdefa"/><polygon points="757.5699999999999,65.88 757.5699999999999,98.82 724.63,98.82" fill="#98b7f3"/><rect x="757.56" y="65.88" width="32.94" height="32.94" fill="#ffffff"/><polygon points="757.56,65.88 790.5,98.82 757.56,98.82" fill="#ffffff"/><rect x="724.63" y="98.81" width="32.94" height="32.94" fill="#ffffff"/><polygon points="724.63,98.81 757.5699999999999,98.81 757.5699999999999,131.75" fill="#f1f5fd"/><rect x="757.56" y="98.81" width="32.94" height="32.94" fill="#fdfdff"/><polygon points="757.56,98.81 790.5,98.81 757.56,131.75" fill="#ffffff"/><rect x="0" y="131.75" width="65.875" height="65.875" fill="#ffffff"/><rect x="0" y="131.75" width="32.94" height="32.94" fill="#ffffff"/><path d="M 0 131.75 A 32.94 32.94 0 0 0 32.94 164.69 L 32.94 131.75L0 131.75" fill="#ffffff"/><rect x="32.94" y="131.75" width="32.94" height="32.94" fill="#ffffff"/><path d="M 32.94 164.69 A 32.94 32.94 0 0 0 65.88 131.75 L 32.94 131.75L32.94 164.69" fill="#e2ebfc"/><rect x="0" y="164.69" width="32.94" height="32.94" fill="#ffffff"/><path d="M 0 197.63 A 32.94 32.94 0 0 1  32.94 164.69 L 32.94 197.63L0 197.63" fill="#ffffff"/><rect x="32.94" y="164.69" width="32.94" height="32.94" fill="#ffffff"/><path d="M 32.94 164.69 A 32.94 32.94 0 0 1 65.88 197.63 L 32.94 197.63L32.94 164.69" fill="#ffffff"/><rect x="65.88" y="131.75" width="65.88" height="65.88" fill="#9dbaf4"/><rect x="65.88" y="131.75" width="65.88" height="65.88" fill="#b9cef7"/><rect x="131.75" y="131.75" width="65.875" height="65.875" fill="#ffffff"/><rect x="131.75" y="131.75" width="32.94" height="32.94" fill="#ffffff"/><polygon points="164.69,131.75 164.69,164.69 131.75,164.69" fill="#b9cef7"/><rect x="164.69" y="131.75" width="32.94" height="32.94" fill="#e8effc"/><polygon points="164.69,131.75 197.63,164.69 164.69,164.69" fill="#ffffff"/><rect x="131.75" y="164.69" width="32.94" height="32.94" fill="#99b8f3"/><polygon points="131.75,164.69 164.69,164.69 131.75,197.63" fill="#ffffff"/><rect x="164.69" y="164.69" width="32.94" height="32.94" fill="#ffffff"/><polygon points="164.69,164.69 197.63,164.69 197.63,197.63" fill="#a5c0f5"/><rect x="197.625" y="131.75" width="65.875" height="65.875" fill="#ffffff"/><rect x="197.63" y="131.75" width="32.94" height="32.94" fill="#fbfcff"/><path d="M 197.63 164.69 A 32.94 32.94 0 0 1  230.57 131.75 L 230.57 164.69L197.63 164.69" fill="#fafcfe"/><rect x="230.56" y="131.75" width="32.94" height="32.94" fill="#b1c9f6"/><path d="M 230.56 131.75 A 32.94 32.94 0 0 1 263.5 164.69 L 230.56 164.69L230.56 131.75" fill="#ffffff"/><rect x="197.63" y="164.69" width="32.94" height="32.94" fill="#d6e2fa"/><path d="M 197.63 164.69 A 32.94 32.94 0 0 0 230.57 197.63 L 230.57 164.69L197.63 164.69" fill="#aac4f5"/><rect x="230.56" y="164.69" width="32.94" height="32.94" fill="#ffffff"/><path d="M 230.56 197.63 A 32.94 32.94 0 0 0 263.5 164.69 L 230.56 164.69L230.56 197.63" fill="#f8fafe"/><rect x="263.5" y="131.75" width="65.875" height="65.875" fill="#ffffff"/><rect x="263.5" y="131.75" width="32.94" height="32.94" fill="#b2c9f6"/><polygon points="296.44,131.75 296.44,164.69 263.5,164.69" fill="#e7eefc"/><rect x="296.44" y="131.75" width="32.94" height="32.94" fill="#aec6f6"/><polygon points="296.44,131.75 329.38,164.69 296.44,164.69" fill="#ffffff"/><rect x="263.5" y="164.69" width="32.94" height="32.94" fill="#ffffff"/><polygon points="263.5,164.69 296.44,164.69 263.5,197.63" fill="#fefeff"/><rect x="296.44" y="164.69" width="32.94" height="32.94" fill="#9ab8f4"/><polygon points="296.44,164.69 329.38,164.69 329.38,197.63" fill="#e3ecfc"/><rect x="329.38" y="131.75" width="65.88" height="65.88" fill="#ffffff"/><path d="M 329.38 197.63 A 65.88 65.88 0 0 0 395.26 131.75 L 329.38 131.75L329.38 197.63" fill="#a6c1f5"/><rect x="395.25" y="131.75" width="65.875" height="65.875" fill="#ffffff"/><rect x="395.25" y="131.75" width="32.94" height="32.94" fill="#ffffff"/><path d="M 395.25 164.69 A 32.94 32.94 0 0 0 428.19 131.75 L 395.25 131.75L395.25 164.69" fill="#dce6fb"/><rect x="428.19" y="131.75" width="32.94" height="32.94" fill="#fdfeff"/><path d="M 428.19 131.75 A 32.94 32.94 0 0 0 461.13 164.69 L 461.13 131.75L428.19 131.75" fill="#ffffff"/><rect x="395.25" y="164.69" width="32.94" height="32.94" fill="#e3ebfc"/><path d="M 395.25 164.69 A 32.94 32.94 0 0 1 428.19 197.63 L 395.25 197.63L395.25 164.69" fill="#ffffff"/><rect x="428.19" y="164.69" width="32.94" height="32.94" fill="#ffffff"/><path d="M 428.19 197.63 A 32.94 32.94 0 0 1  461.13 164.69 L 461.13 197.63L428.19 197.63" fill="#ffffff"/><rect x="461.125" y="131.75" width="65.875" height="65.875" fill="#ffffff"/><rect x="461.13" y="131.75" width="32.94" height="32.94" fill="#d5e2fa"/><polygon points="494.07,131.75 494.07,164.69 461.13,164.69" fill="#eff4fd"/><rect x="494.06" y="131.75" width="32.94" height="32.94" fill="#b1c8f6"/><polygon points="494.06,131.75 527,164.69 494.06,164.69" fill="#ffffff"/><rect x="461.13" y="164.69" width="32.94" height="32.94" fill="#ffffff"/><polygon points="461.13,164.69 494.07,164.69 461.13,197.63" fill="#ffffff"/><rect x="494.06" y="164.69" width="32.94" height="32.94" fill="#ffffff"/><polygon points="494.06,164.69 527,164.69 527,197.63" fill="#c2d5f8"/><rect x="527" y="131.75" width="65.88" height="65.88" fill="#c2d5f8"/><polygon points="527,131.75 592.88,131.75 527,197.63" fill="#ffffff"/><rect x="592.88" y="131.75" width="65.88" height="65.88" fill="#b0c8f6"/><path d="M 592.88 197.63 A 65.88 65.88 0 0 1  658.76 131.75 L 658.76 197.63L592.88 197.63" fill="#f7f9fe"/><rect x="658.75" y="131.75" width="65.875" height="65.875" fill="#ffffff"/><rect x="658.75" y="131.75" width="32.94" height="32.94" fill="#b6ccf7"/><polygon points="691.69,131.75 691.69,164.69 658.75,164.69" fill="#c3d5f8"/><rect x="691.69" y="131.75" width="32.94" height="32.94" fill="#ffffff"/><polygon points="691.69,131.75 724.6300000000001,164.69 691.69,164.69" fill="#ffffff"/><rect x="658.75" y="164.69" width="32.94" height="32.94" fill="#ffffff"/><polygon points="658.75,164.69 691.69,164.69 691.69,197.63" fill="#f6f9fe"/><rect x="691.69" y="164.69" width="32.94" height="32.94" fill="#f0f5fd"/><polygon points="691.69,164.69 724.6300000000001,164.69 691.69,197.63" fill="#e0e9fb"/><rect x="724.63" y="131.75" width="65.88" height="65.88" fill="#ffffff"/><path d="M 724.63 197.63 A 65.88 65.88 0 0 1  790.51 131.75 L 724.63 197.63 A 65.88 65.88 0 0 0 790.51 131.75" fill="#9dbbf4"/><rect x="0" y="197.625" width="65.875" height="65.875" fill="#ffffff"/><rect x="0" y="197.63" width="32.94" height="32.94" fill="#ffffff"/><polygon points="32.94,197.63 32.94,230.57 0,230.57" fill="#ffffff"/><rect x="32.94" y="197.63" width="32.94" height="32.94" fill="#eaf0fd"/><polygon points="32.94,197.63 65.88,197.63 32.94,230.57" fill="#a8c2f5"/><rect x="0" y="230.56" width="32.94" height="32.94" fill="#ffffff"/><polygon points="0,230.56 32.94,230.56 32.94,263.5" fill="#ffffff"/><rect x="32.94" y="230.56" width="32.94" height="32.94" fill="#ffffff"/><polygon points="32.94,230.56 65.88,263.5 32.94,263.5" fill="#d1dffa"/><rect x="65.875" y="197.625" width="65.875" height="65.875" fill="#ffffff"/><rect x="65.88" y="197.63" width="32.94" height="32.94" fill="#eff4fd"/><polygon points="98.82,197.63 98.82,230.57 65.88,230.57" fill="#a1bdf4"/><rect x="98.81" y="197.63" width="32.94" height="32.94" fill="#ffffff"/><polygon points="98.81,197.63 131.75,197.63 98.81,230.57" fill="#ffffff"/><rect x="65.88" y="230.56" width="32.94" height="32.94" fill="#ffffff"/><polygon points="65.88,230.56 98.82,230.56 98.82,263.5" fill="#ffffff"/><rect x="98.81" y="230.56" width="32.94" height="32.94" fill="#b2c9f6"/><polygon points="98.81,230.56 131.75,263.5 98.81,263.5" fill="#ffffff"/><rect x="131.75" y="197.63" width="65.88" height="65.88" fill="#d9e4fb"/><rect x="131.75" y="197.63" width="65.88" height="65.88" fill="#ffffff"/><rect x="197.63" y="197.63" width="65.88" height="65.88" fill="#ffffff"/><polygon points="197.63,197.63 263.51,197.63 263.51,263.51" fill="#a8c2f5"/><rect x="263.5" y="197.625" width="65.875" height="65.875" fill="#ffffff"/><rect x="263.5" y="197.63" width="32.94" height="32.94" fill="#ffffff"/><polygon points="296.44,197.63 296.44,230.57 263.5,230.57" fill="#ffffff"/><rect x="296.44" y="197.63" width="32.94" height="32.94" fill="#ffffff"/><polygon points="296.44,197.63 329.38,197.63 296.44,230.57" fill="#acc5f6"/><rect x="263.5" y="230.56" width="32.94" height="32.94" fill="#ffffff"/><polygon points="263.5,230.56 296.44,230.56 296.44,263.5" fill="#ceddf9"/><rect x="296.44" y="230.56" width="32.94" height="32.94" fill="#e9f0fd"/><polygon points="296.44,230.56 329.38,263.5 296.44,263.5" fill="#c4d6f8"/><rect x="329.38" y="197.63" width="65.88" height="65.88" fill="#ffffff"/><polygon points="329.38,197.63 395.26,263.51 329.38,263.51" fill="#ffffff"/><rect x="395.25" y="197.63" width="65.88" height="65.88" fill="#ffffff"/><path d="M 395.25 263.51 A 65.88 65.88 0 0 0 461.13 197.63 L 395.25 197.63L395.25 263.51" fill="#a9c3f5"/><rect x="461.125" y="197.625" width="65.875" height="65.875" fill="#ffffff"/><rect x="461.13" y="197.63" width="32.94" height="32.94" fill="#ffffff"/><circle cx="477.6" cy="214.1" r="16.47" fill="#ffffff"/><rect x="494.06" y="197.63" width="32.94" height="32.94" fill="#ffffff"/><rect x="494.06" y="197.63" width="32.94" height="32.94" fill="#ffffff"/><rect x="461.13" y="230.56" width="32.94" height="32.94" fill="#c2d5f8"/><circle cx="477.6" cy="247.03" r="16.47" fill="#b5ccf7"/><rect x="494.06" y="230.56" width="32.94" height="32.94" fill="#ffffff"/><rect x="494.06" y="230.56" width="32.94" height="32.94" fill="#ffffff"/><rect x="527" y="197.625" width="65.875" height="65.875" fill="#ffffff"/><rect x="527" y="197.63" width="32.94" height="32.94" fill="#f1f5fd"/><polygon points="559.94,197.63 559.94,230.57 527,230.57" fill="#fefeff"/><rect x="559.94" y="197.63" width="32.94" height="32.94" fill="#ffffff"/><polygon points="559.94,197.63 592.8800000000001,230.57 559.94,230.57" fill="#ffffff"/><rect x="527" y="230.56" width="32.94" height="32.94" fill="#e6eefc"/><polygon points="527,230.56 559.94,230.56 527,263.5" fill="#ffffff"/><rect x="559.94" y="230.56" width="32.94" height="32.94" fill="#ffffff"/><polygon points="559.94,230.56 592.8800000000001,230.56 592.8800000000001,263.5" fill="#ffffff"/><rect x="592.88" y="197.63" width="65.88" height="65.88" fill="#98b7f3"/><path d="M 592.88 197.63 A 65.88 65.88 0 0 1 658.76 263.51 L 592.88 263.51L592.88 197.63" fill="#9fbcf4"/><rect x="658.75" y="197.63" width="65.88" height="65.88" fill="#c9d9f9"/><path d="M 658.75 263.51 A 65.88 65.88 0 0 1  724.63 197.63 L 724.63 263.51L658.75 263.51" fill="#c8d9f9"/><rect x="724.625" y="197.625" width="65.875" height="65.875" fill="#ffffff"/><rect x="724.63" y="197.63" width="32.94" height="32.94" fill="#ffffff"/><circle cx="741.1" cy="214.1" r="16.47" fill="#ffffff"/><rect x="757.56" y="197.63" width="32.94" height="32.94" fill="#ffffff"/><rect x="757.56" y="197.63" width="32.94" height="32.94" fill="#ffffff"/><rect x="724.63" y="230.56" width="32.94" height="32.94" fill="#b9cef7"/><circle cx="741.1" cy="247.03" r="16.47" fill="#d8e4fb"/><rect x="757.56" y="230.56" width="32.94" height="32.94" fill="#b6ccf7"/><rect x="757.56" y="230.56" width="32.94" height="32.94" fill="#ffffff"/><rect x="0" y="263.5" width="65.875" height="65.875" fill="#ffffff"/><rect x="0" y="263.5" width="32.94" height="32.94" fill="#ffffff"/><path d="M 0 296.44 A 32.94 32.94 0 0 0 32.94 263.5 L 0 263.5L0 296.44" fill="#e9f0fd"/><rect x="32.94" y="263.5" width="32.94" height="32.94" fill="#ffffff"/><path d="M 32.94 263.5 A 32.94 32.94 0 0 0 65.88 296.44 L 65.88 263.5L32.94 263.5" fill="#a5c0f5"/><rect x="0" y="296.44" width="32.94" height="32.94" fill="#b5ccf7"/><path d="M 0 296.44 A 32.94 32.94 0 0 1 32.94 329.38 L 0 329.38L0 296.44" fill="#acc5f6"/><rect x="32.94" y="296.44" width="32.94" height="32.94" fill="#ffffff"/><path d="M 32.94 329.38 A 32.94 32.94 0 0 1  65.88 296.44 L 65.88 329.38L32.94 329.38" fill="#ffffff"/><rect x="65.875" y="263.5" width="65.875" height="65.875" fill="#ffffff"/><rect x="65.88" y="263.5" width="32.94" height="32.94" fill="#f9fbfe"/><polygon points="98.82,263.5 98.82,296.44 65.88,296.44" fill="#ffffff"/><rect x="98.81" y="263.5" width="32.94" height="32.94" fill="#ffffff"/><polygon points="98.81,263.5 131.75,263.5 98.81,296.44" fill="#d9e5fb"/><rect x="65.88" y="296.44" width="32.94" height="32.94" fill="#e3ebfc"/><polygon points="65.88,296.44 98.82,296.44 98.82,329.38" fill="#ffffff"/><rect x="98.81" y="296.44" width="32.94" height="32.94" fill="#a1bef4"/><polygon points="98.81,296.44 131.75,329.38 98.81,329.38" fill="#d2e0fa"/><rect x="131.75" y="263.5" width="65.88" height="65.88" fill="#ffffff"/><polygon points="131.75,263.5 197.63,263.5 197.63,329.38" fill="#ffffff"/><rect x="197.625" y="263.5" width="65.875" height="65.875" fill="#ffffff"/><rect x="197.63" y="263.5" width="32.94" height="32.94" fill="#eef3fd"/><path d="M 197.63 296.44 A 32.94 32.94 0 0 1 230.57 263.5 L 230.57 271.735 A 24.705 24.705 0 0 0 205.865 296.44" fill="#d9e5fb"/><rect x="230.56" y="263.5" width="32.94" height="32.94" fill="#ffffff"/><path d="M 230.56 263.5 A 32.94 32.94 0 0 1 263.5 296.44 L 255.265 296.44 A 24.705 24.705 0 0 0 230.56 271.735" fill="#ffffff"/><rect x="197.63" y="296.44" width="32.94" height="32.94" fill="#b2c9f6"/><path d="M 197.63 296.44 A 32.94 32.94 0 0 0 230.57 329.38 L 230.57 321.145 A 24.705 24.705 0 0 1 205.865 296.44" fill="#aac3f5"/><rect x="230.56" y="296.44" width="32.94" height="32.94" fill="#ecf2fd"/><path d="M 230.56 329.38 A 32.94 32.94 0 0 0 263.5 296.44 L 255.265 296.44 A 24.705 24.705 0 0 1 230.56 321.145" fill="#ffffff"/><rect x="263.5" y="263.5" width="65.88" height="65.88" fill="#d0defa"/><path d="M 263.5 263.5 A 65.88 65.88 0 0 1  329.38 329.38 L 263.5 263.5 A 65.88 65.88 0 0 0 329.38 329.38" fill="#ffffff"/><rect x="329.38" y="263.5" width="65.88" height="65.88" fill="#e1eafc"/><polygon points="329.38,263.5 395.26,263.5 395.26,329.38" fill="#ffffff"/><rect x="395.25" y="263.5" width="65.88" height="65.88" fill="#ffffff"/><polygon points="395.25,263.5 461.13,263.5 461.13,329.38" fill="#ffffff"/><rect x="461.13" y="263.5" width="65.88" height="65.88" fill="#ffffff"/><rect x="461.13" y="263.5" width="65.88" height="65.88" fill="#ffffff"/><rect x="527" y="263.5" width="65.88" height="65.88" fill="#ffffff"/><polygon points="592.88,263.5 592.88,329.38 527,329.38" fill="#b3caf6"/><rect x="592.875" y="263.5" width="65.875" height="65.875" fill="#ffffff"/><rect x="592.88" y="263.5" width="32.94" height="32.94" fill="#ffffff"/><path d="M 592.88 263.5 A 32.94 32.94 0 0 1 625.8199999999999 296.44 L 592.88 296.44L592.88 263.5" fill="#a6c1f5"/><rect x="625.81" y="263.5" width="32.94" height="32.94" fill="#e5edfc"/><path d="M 625.81 296.44 A 32.94 32.94 0 0 1  658.75 263.5 L 658.75 296.44L625.81 296.44" fill="#abc5f6"/><rect x="592.88" y="296.44" width="32.94" height="32.94" fill="#ffffff"/><path d="M 592.88 329.38 A 32.94 32.94 0 0 0 625.8199999999999 296.44 L 592.88 296.44L592.88 329.38" fill="#d2e0fa"/><rect x="625.81" y="296.44" width="32.94" height="32.94" fill="#bacff7"/><path d="M 625.81 296.44 A 32.94 32.94 0 0 0 658.75 329.38 L 658.75 296.44L625.81 296.44" fill="#ffffff"/><rect x="658.75" y="263.5" width="65.875" height="65.875" fill="#ffffff"/><rect x="658.75" y="263.5" width="32.94" height="32.94" fill="#ffffff"/><path d="M 658.75 263.5 A 32.94 32.94 0 0 1 691.69 296.44 L 658.75 296.44L658.75 263.5" fill="#ffffff"/><rect x="691.69" y="263.5" width="32.94" height="32.94" fill="#96b5f3"/><path d="M 691.69 296.44 A 32.94 32.94 0 0 1  724.6300000000001 263.5 L 724.6300000000001 296.44L691.69 296.44" fill="#ffffff"/><rect x="658.75" y="296.44" width="32.94" height="32.94" fill="#ffffff"/><path d="M 658.75 329.38 A 32.94 32.94 0 0 0 691.69 296.44 L 658.75 296.44L658.75 329.38" fill="#e1eafc"/><rect x="691.69" y="296.44" width="32.94" height="32.94" fill="#ffffff"/><path d="M 691.69 296.44 A 32.94 32.94 0 0 0 724.6300000000001 329.38 L 724.6300000000001 296.44L691.69 296.44" fill="#ffffff"/><rect x="724.625" y="263.5" width="65.875" height="65.875" fill="#ffffff"/><rect x="724.63" y="263.5" width="32.94" height="32.94" fill="#d6e2fa"/><path d="M 724.63 296.44 A 32.94 32.94 0 0 1 757.5699999999999 263.5 L 757.5699999999999 271.735 A 24.705 24.705 0 0 0 732.865 296.44" fill="#ffffff"/><rect x="757.56" y="263.5" width="32.94" height="32.94" fill="#eef3fd"/><path d="M 757.56 263.5 A 32.94 32.94 0 0 1 790.5 296.44 L 782.265 296.44 A 24.705 24.705 0 0 0 757.56 271.735" fill="#b4caf6"/><rect x="724.63" y="296.44" width="32.94" height="32.94" fill="#ffffff"/><path d="M 724.63 296.44 A 32.94 32.94 0 0 0 757.5699999999999 329.38 L 757.5699999999999 321.145 A 24.705 24.705 0 0 1 732.865 296.44" fill="#ffffff"/><rect x="757.56" y="296.44" width="32.94" height="32.94" fill="#e1eafc"/><path d="M 757.56 329.38 A 32.94 32.94 0 0 0 790.5 296.44 L 782.265 296.44 A 24.705 24.705 0 0 1 757.56 321.145" fill="#dee8fb"/><rect x="0" y="329.375" width="65.875" height="65.875" fill="#ffffff"/><rect x="0" y="329.38" width="32.94" height="32.94" fill="#d5e2fa"/><path d="M 0 329.38 A 32.94 32.94 0 0 1 32.94 362.32 L 0 362.32L0 329.38" fill="#ffffff"/><rect x="32.94" y="329.38" width="32.94" height="32.94" fill="#c9d9f9"/><path d="M 32.94 362.32 A 32.94 32.94 0 0 1  65.88 329.38 L 65.88 362.32L32.94 362.32" fill="#ffffff"/><rect x="0" y="362.31" width="32.94" height="32.94" fill="#ffffff"/><path d="M 0 395.25 A 32.94 32.94 0 0 0 32.94 362.31 L 0 362.31L0 395.25" fill="#a7c1f5"/><rect x="32.94" y="362.31" width="32.94" height="32.94" fill="#ffffff"/><path d="M 32.94 362.31 A 32.94 32.94 0 0 0 65.88 395.25 L 65.88 362.31L32.94 362.31" fill="#c6d7f9"/><rect x="65.88" y="329.38" width="65.88" height="65.88" fill="#ffffff"/><polygon points="65.88,329.38 131.76,329.38 65.88,395.26" fill="#ffffff"/><rect x="131.75" y="329.38" width="65.88" height="65.88" fill="#d9e4fb"/><polygon points="131.75,329.38 197.63,395.26 131.75,395.26" fill="#ffffff"/><rect x="197.63" y="329.38" width="65.88" height="65.88" fill="#bfd3f8"/><rect x="197.63" y="329.38" width="65.88" height="65.88" fill="#b6ccf7"/><rect x="263.5" y="329.38" width="65.88" height="65.88" fill="#ffffff"/><rect x="263.5" y="329.38" width="65.88" height="65.88" fill="#b6ccf7"/><rect x="329.38" y="329.38" width="65.88" height="65.88" fill="#dce7fb"/><path d="M 329.38 329.38 A 65.88 65.88 0 0 1 395.26 395.26 L 329.38 395.26L329.38 329.38" fill="#f2f6fd"/><rect x="395.25" y="329.38" width="65.88" height="65.88" fill="#ffffff"/><polygon points="461.13,329.38 461.13,395.26 395.25,395.26" fill="#ffffff"/><rect x="461.13" y="329.38" width="65.88" height="65.88" fill="#ffffff"/><rect x="461.13" y="329.38" width="65.88" height="65.88" fill="#c5d7f8"/><rect x="527" y="329.375" width="65.875" height="65.875" fill="#ffffff"/><rect x="527" y="329.38" width="32.94" height="32.94" fill="#d7e3fb"/><circle cx="543.47" cy="345.85" r="16.47" fill="#d3e0fa"/><rect x="559.94" y="329.38" width="32.94" height="32.94" fill="#a7c1f5"/><rect x="559.94" y="329.38" width="32.94" height="32.94" fill="#98b7f3"/><rect x="527" y="362.31" width="32.94" height="32.94" fill="#acc5f6"/><circle cx="543.47" cy="378.78" r="16.47" fill="#ffffff"/><rect x="559.94" y="362.31" width="32.94" height="32.94" fill="#ffffff"/><rect x="559.94" y="362.31" width="32.94" height="32.94" fill="#ffffff"/><rect x="592.875" y="329.375" width="65.875" height="65.875" fill="#ffffff"/><rect x="592.88" y="329.38" width="32.94" height="32.94" fill="#9dbbf4"/><polygon points="625.8199999999999,329.38 625.8199999999999,362.32 592.88,362.32" fill="#cbdbf9"/><rect x="625.81" y="329.38" width="32.94" height="32.94" fill="#b4cbf7"/><polygon points="625.81,329.38 658.75,329.38 625.81,362.32" fill="#f6f9fe"/><rect x="592.88" y="362.31" width="32.94" height="32.94" fill="#ffffff"/><polygon points="592.88,362.31 625.8199999999999,362.31 625.8199999999999,395.25" fill="#bfd2f8"/><rect x="625.81" y="362.31" width="32.94" height="32.94" fill="#ffffff"/><polygon points="625.81,362.31 658.75,395.25 625.81,395.25" fill="#9dbaf4"/><rect x="658.75" y="329.375" width="65.875" height="65.875" fill="#ffffff"/><rect x="658.75" y="329.38" width="32.94" height="32.94" fill="#dde7fb"/><path d="M 658.75 329.38 A 32.94 32.94 0 0 0 691.69 362.32 L 691.69 329.38L658.75 329.38" fill="#ffffff"/><rect x="691.69" y="329.38" width="32.94" height="32.94" fill="#ffffff"/><path d="M 691.69 362.32 A 32.94 32.94 0 0 0 724.6300000000001 329.38 L 691.69 329.38L691.69 362.32" fill="#ffffff"/><rect x="658.75" y="362.31" width="32.94" height="32.94" fill="#ffffff"/><path d="M 658.75 395.25 A 32.94 32.94 0 0 1  691.69 362.31 L 691.69 395.25L658.75 395.25" fill="#cddcf9"/><rect x="691.69" y="362.31" width="32.94" height="32.94" fill="#ffffff"/><path d="M 691.69 362.31 A 32.94 32.94 0 0 1 724.6300000000001 395.25 L 691.69 395.25L691.69 362.31" fill="#eaf1fd"/><rect x="724.625" y="329.375" width="65.875" height="65.875" fill="#ffffff"/><rect x="724.63" y="329.38" width="32.94" height="32.94" fill="#98b7f3"/><polygon points="757.5699999999999,329.38 757.5699999999999,362.32 724.63,362.32" fill="#ffffff"/><rect x="757.56" y="329.38" width="32.94" height="32.94" fill="#ffffff"/><polygon points="757.56,329.38 790.5,329.38 757.56,362.32" fill="#ffffff"/><rect x="724.63" y="362.31" width="32.94" height="32.94" fill="#ffffff"/><polygon points="724.63,362.31 757.5699999999999,362.31 757.5699999999999,395.25" fill="#ffffff"/><rect x="757.56" y="362.31" width="32.94" height="32.94" fill="#ffffff"/><polygon points="757.56,362.31 790.5,395.25 757.56,395.25" fill="#ffffff"/><rect x="0" y="395.25" width="65.88" height="65.88" fill="#96b6f3"/><polygon points="0,395.25 65.88,395.25 65.88,461.13" fill="#f5f8fe"/><rect x="65.88" y="395.25" width="65.88" height="65.88" fill="#cbdbf9"/><path d="M 65.88 461.13 A 65.88 65.88 0 0 0 131.76 395.25 L 65.88 395.25L65.88 461.13" fill="#fcfdff"/><rect x="131.75" y="395.25" width="65.88" height="65.88" fill="#ceddf9"/><polygon points="131.75,395.25 197.63,395.25 197.63,461.13" fill="#d6e2fa"/><rect x="197.625" y="395.25" width="65.875" height="65.875" fill="#ffffff"/><rect x="197.63" y="395.25" width="32.94" height="32.94" fill="#f0f5fd"/><path d="M 197.63 428.19 A 32.94 32.94 0 0 1 230.57 395.25 L 230.57 403.485 A 24.705 24.705 0 0 0 205.865 428.19" fill="#a4c0f5"/><rect x="230.56" y="395.25" width="32.94" height="32.94" fill="#bcd0f7"/><path d="M 230.56 395.25 A 32.94 32.94 0 0 1 263.5 428.19 L 255.265 428.19 A 24.705 24.705 0 0 0 230.56 403.485" fill="#e1eafc"/><rect x="197.63" y="428.19" width="32.94" height="32.94" fill="#f1f5fd"/><path d="M 197.63 428.19 A 32.94 32.94 0 0 0 230.57 461.13 L 230.57 452.895 A 24.705 24.705 0 0 1 205.865 428.19" fill="#f9fbfe"/><rect x="230.56" y="428.19" width="32.94" height="32.94" fill="#ffffff"/><path d="M 230.56 461.13 A 32.94 32.94 0 0 0 263.5 428.19 L 255.265 428.19 A 24.705 24.705 0 0 1 230.56 452.895" fill="#a7c1f5"/><rect x="263.5" y="395.25" width="65.88" height="65.88" fill="#f1f5fd"/><path d="M 263.5 461.13 A 65.88 65.88 0 0 1  329.38 395.25 L 263.5 461.13 A 65.88 65.88 0 0 0 329.38 395.25" fill="#d0defa"/><rect x="329.38" y="395.25" width="65.88" height="65.88" fill="#dde7fb"/><path d="M 329.38 461.13 A 65.88 65.88 0 0 1  395.26 395.25 L 329.38 461.13 A 65.88 65.88 0 0 0 395.26 395.25" fill="#cbdbf9"/><rect x="395.25" y="395.25" width="65.88" height="65.88" fill="#ffffff"/><path d="M 395.25 461.13 A 65.88 65.88 0 0 0 461.13 395.25 L 395.25 395.25L395.25 461.13" fill="#ffffff"/><rect x="461.125" y="395.25" width="65.875" height="65.875" fill="#ffffff"/><rect x="461.13" y="395.25" width="32.94" height="32.94" fill="#ffffff"/><path d="M 461.13 428.19 A 32.94 32.94 0 0 1 494.07 395.25 L 494.07 403.485 A 24.705 24.705 0 0 0 469.365 428.19" fill="#c7d8f9"/><rect x="494.06" y="395.25" width="32.94" height="32.94" fill="#fafcfe"/><path d="M 494.06 395.25 A 32.94 32.94 0 0 1 527 428.19 L 518.765 428.19 A 24.705 24.705 0 0 0 494.06 403.485" fill="#ffffff"/><rect x="461.13" y="428.19" width="32.94" height="32.94" fill="#9cbaf4"/><path d="M 461.13 428.19 A 32.94 32.94 0 0 0 494.07 461.13 L 494.07 452.895 A 24.705 24.705 0 0 1 469.365 428.19" fill="#ffffff"/><rect x="494.06" y="428.19" width="32.94" height="32.94" fill="#ffffff"/><path d="M 494.06 461.13 A 32.94 32.94 0 0 0 527 428.19 L 518.765 428.19 A 24.705 24.705 0 0 1 494.06 452.895" fill="#ffffff"/><rect x="527" y="395.25" width="65.88" height="65.88" fill="#99b8f3"/><path d="M 527 395.25 A 65.88 65.88 0 0 0 592.88 461.13 L 592.88 395.25L527 395.25" fill="#ffffff"/><rect x="592.88" y="395.25" width="65.88" height="65.88" fill="#eef3fd"/><path d="M 592.88 461.13 A 65.88 65.88 0 0 0 658.76 395.25 L 592.88 395.25L592.88 461.13" fill="#ffffff"/><rect x="658.75" y="395.25" width="65.875" height="65.875" fill="#ffffff"/><rect x="658.75" y="395.25" width="32.94" height="32.94" fill="#f2f6fe"/><path d="M 658.75 395.25 A 32.94 32.94 0 0 0 691.69 428.19 L 691.69 395.25L658.75 395.25" fill="#b0c8f6"/><rect x="691.69" y="395.25" width="32.94" height="32.94" fill="#bdd1f8"/><path d="M 691.69 428.19 A 32.94 32.94 0 0 0 724.6300000000001 395.25 L 691.69 395.25L691.69 428.19" fill="#ffffff"/><rect x="658.75" y="428.19" width="32.94" height="32.94" fill="#ffffff"/><path d="M 658.75 461.13 A 32.94 32.94 0 0 1  691.69 428.19 L 691.69 461.13L658.75 461.13" fill="#ffffff"/><rect x="691.69" y="428.19" width="32.94" height="32.94" fill="#9fbcf4"/><path d="M 691.69 428.19 A 32.94 32.94 0 0 1 724.6300000000001 461.13 L 691.69 461.13L691.69 428.19" fill="#ffffff"/><rect x="724.63" y="395.25" width="65.88" height="65.88" fill="#aec7f6"/><path d="M 724.63 395.25 A 65.88 65.88 0 0 1 790.51 461.13 L 724.63 461.13L724.63 395.25" fill="#ecf2fd"/><rect x="0" y="461.125" width="65.875" height="65.875" fill="#ffffff"/><rect x="0" y="461.13" width="32.94" height="32.94" fill="#ffffff"/><path d="M 0 461.13 A 32.94 32.94 0 0 1 32.94 494.07 L 0 494.07L0 461.13" fill="#f4f7fe"/><rect x="32.94" y="461.13" width="32.94" height="32.94" fill="#bdd1f8"/><path d="M 32.94 494.07 A 32.94 32.94 0 0 1  65.88 461.13 L 65.88 494.07L32.94 494.07" fill="#ffffff"/><rect x="0" y="494.06" width="32.94" height="32.94" fill="#ffffff"/><path d="M 0 527 A 32.94 32.94 0 0 0 32.94 494.06 L 0 494.06L0 527" fill="#ffffff"/><rect x="32.94" y="494.06" width="32.94" height="32.94" fill="#ffffff"/><path d="M 32.94 494.06 A 32.94 32.94 0 0 0 65.88 527 L 65.88 494.06L32.94 494.06" fill="#a7c2f5"/><rect x="65.875" y="461.125" width="65.875" height="65.875" fill="#ffffff"/><rect x="65.88" y="461.13" width="32.94" height="32.94" fill="#ffffff"/><polygon points="98.82,461.13 98.82,494.07 65.88,494.07" fill="#dde7fb"/><rect x="98.81" y="461.13" width="32.94" height="32.94" fill="#f9fbfe"/><polygon points="98.81,461.13 131.75,494.07 98.81,494.07" fill="#f7f9fe"/><rect x="65.88" y="494.06" width="32.94" height="32.94" fill="#b1c8f6"/><polygon points="65.88,494.06 98.82,494.06 98.82,527" fill="#ffffff"/><rect x="98.81" y="494.06" width="32.94" height="32.94" fill="#ffffff"/><polygon points="98.81,494.06 131.75,494.06 98.81,527" fill="#d6e2fa"/><rect x="131.75" y="461.13" width="65.88" height="65.88" fill="#ffffff"/><path d="M 131.75 527.01 A 65.88 65.88 0 0 1  197.63 461.13 L 131.75 527.01 A 65.88 65.88 0 0 0 197.63 461.13" fill="#cbdbf9"/><rect x="197.63" y="461.13" width="65.88" height="65.88" fill="#cfdefa"/><polygon points="197.63,461.13 263.51,461.13 197.63,527.01" fill="#ffffff"/><rect x="263.5" y="461.13" width="65.88" height="65.88" fill="#dee8fb"/><rect x="263.5" y="461.13" width="65.88" height="65.88" fill="#ffffff"/><rect x="329.38" y="461.13" width="65.88" height="65.88" fill="#ffffff"/><polygon points="329.38,461.13 395.26,461.13 395.26,527.01" fill="#d5e2fa"/><rect x="395.25" y="461.13" width="65.88" height="65.88" fill="#9ab8f4"/><rect x="395.25" y="461.13" width="65.88" height="65.88" fill="#ecf2fd"/><rect x="461.13" y="461.13" width="65.88" height="65.88" fill="#9dbbf4"/><rect x="461.13" y="461.13" width="65.88" height="65.88" fill="#ffffff"/><rect x="527" y="461.13" width="65.88" height="65.88" fill="#ffffff"/><polygon points="527,461.13 592.88,527.01 527,527.01" fill="#c2d4f8"/><rect x="592.88" y="461.13" width="65.88" height="65.88" fill="#ffffff"/><path d="M 592.88 527.01 A 65.88 65.88 0 0 1  658.76 461.13 L 592.88 527.01 A 65.88 65.88 0 0 0 658.76 461.13" fill="#ffffff"/><rect x="658.75" y="461.125" width="65.875" height="65.875" fill="#ffffff"/><rect x="658.75" y="461.13" width="32.94" height="32.94" fill="#bacff7"/><polygon points="691.69,461.13 691.69,494.07 658.75,494.07" fill="#ffffff"/><rect x="691.69" y="461.13" width="32.94" height="32.94" fill="#ffffff"/><polygon points="691.69,461.13 724.6300000000001,461.13 691.69,494.07" fill="#cddcf9"/><rect x="658.75" y="494.06" width="32.94" height="32.94" fill="#aec7f6"/><polygon points="658.75,494.06 691.69,494.06 691.69,527" fill="#ffffff"/><rect x="691.69" y="494.06" width="32.94" height="32.94" fill="#e9f0fd"/><polygon points="691.69,494.06 724.6300000000001,527 691.69,527" fill="#9bb9f4"/><rect x="724.625" y="461.125" width="65.875" height="65.875" fill="#ffffff"/><rect x="724.63" y="461.13" width="32.94" height="32.94" fill="#ffffff"/><path d="M 724.63 494.07 A 32.94 32.94 0 0 1 757.5699999999999 461.13 L 757.5699999999999 469.365 A 24.705 24.705 0 0 0 732.865 494.07" fill="#ffffff"/><rect x="757.56" y="461.13" width="32.94" height="32.94" fill="#ffffff"/><path d="M 757.56 461.13 A 32.94 32.94 0 0 1 790.5 494.07 L 782.265 494.07 A 24.705 24.705 0 0 0 757.56 469.365" fill="#c2d4f8"/><rect x="724.63" y="494.06" width="32.94" height="32.94" fill="#bacff7"/><path d="M 724.63 494.06 A 32.94 32.94 0 0 0 757.5699999999999 527 L 757.5699999999999 518.765 A 24.705 24.705 0 0 1 732.865 494.06" fill="#ffffff"/><rect x="757.56" y="494.06" width="32.94" height="32.94" fill="#ffffff"/><path d="M 757.56 527 A 32.94 32.94 0 0 0 790.5 494.06 L 782.265 494.06 A 24.705 24.705 0 0 1 757.56 518.765" fill="#9bb9f4"/></g></svg>